<svg width="88" height="98" viewBox="0 0 88 98" fill="none" xmlns="http://www.w3.org/2000/svg">
<path d="M17.3297 81.5411L17.9006 82.2145C18.1489 82.4306 18.4054 82.6633 18.6701 82.9127C18.9515 83.1621 19.2245 83.4115 19.4893 83.6608C19.7872 83.9601 20.0933 84.2677 20.4077 84.5835C20.7387 84.8828 21.0696 85.182 21.4006 85.4813C21.6985 85.7639 21.9881 86.0632 22.2694 86.3791C22.5673 86.6949 22.832 86.9692 23.0637 87.202C23.3285 87.5511 23.5519 87.7672 23.7339 87.8504C23.9325 87.9667 24.1063 88.1164 24.2552 88.2993C24.4538 88.5819 24.6937 88.8146 24.975 88.9975C25.0578 89.0308 25.1405 89.0723 25.2233 89.1222C25.306 89.1887 25.397 89.2552 25.4963 89.3217C25.7114 89.4381 25.8769 89.5794 25.9928 89.7456C26.0755 89.8288 26.15 89.8953 26.2162 89.9451C26.2989 90.0116 26.3817 90.0698 26.4644 90.1197C26.5637 90.1862 26.6464 90.2361 26.7126 90.2693C26.7788 90.3192 26.845 90.3608 26.9112 90.394C26.9774 90.4273 27.0436 90.4605 27.1098 90.4938C27.176 90.5436 27.2504 90.6018 27.3332 90.6683C27.4159 90.7515 27.4987 90.8096 27.5814 90.8429C27.6807 90.8928 27.78 90.9426 27.8793 90.9925C27.9786 91.0258 28.0779 91.0923 28.1771 91.192C28.2764 91.2918 28.3674 91.3832 28.4502 91.4663C28.7481 91.7323 29.0294 91.9235 29.2942 92.0399C29.4431 92.1397 29.5755 92.2394 29.6913 92.3392C29.8072 92.4389 29.9313 92.5303 30.0637 92.6135C30.2622 92.8628 30.527 93.0457 30.858 93.1621C31.0731 93.212 31.2138 93.2618 31.28 93.3117C31.2965 93.3616 31.4123 93.3865 31.6275 93.3865C31.8095 93.4364 31.9584 93.4697 32.0743 93.4863C32.1901 93.5029 32.2977 93.5195 32.397 93.5362C32.3308 93.5694 32.3308 93.6276 32.397 93.7107C32.4632 93.7772 32.4963 93.8354 32.4963 93.8853C32.6121 93.8853 32.7031 93.877 32.7693 93.8603C32.852 93.8603 32.9348 93.852 33.0175 93.8354C32.9679 93.8687 32.9927 93.8936 33.092 93.9102L33.1665 93.9601C33.5471 93.877 33.8201 93.7855 33.9856 93.6858L34.0352 93.611C34.0352 93.5777 34.1428 93.5029 34.3579 93.3865C34.5234 93.2037 34.6393 92.9792 34.7055 92.7132C34.7716 92.4638 34.8213 92.1895 34.8544 91.8903L34.8047 91.6409C34.8709 91.5744 34.962 91.5411 35.0778 91.5411C35.1936 91.5411 35.3012 91.591 35.4005 91.6908C35.4998 91.8071 35.5825 92.0316 35.6487 92.3641C35.6818 92.5137 35.6983 92.6633 35.6983 92.813C35.6983 92.9792 35.7066 93.1288 35.7232 93.2618C35.7894 93.3948 35.8225 93.4946 35.8225 93.5611C35.839 93.6442 35.8307 93.7273 35.7976 93.8105C35.7811 93.8936 35.7563 94.0017 35.7232 94.1347C35.7728 94.5004 35.6487 94.8994 35.3508 95.3317C35.3343 95.4647 35.3012 95.5977 35.2515 95.7307C35.2184 95.8637 35.1771 95.9967 35.1274 96.1297C35.0447 96.2627 34.9537 96.3874 34.8544 96.5037C34.7551 96.6367 34.6641 96.7697 34.5813 96.9027L34.1097 97.3017C33.7787 97.5345 33.4312 97.7008 33.0672 97.8005C32.7031 97.9003 32.3308 97.9668 31.9502 98L31.6026 97.9501C31.4041 97.9668 31.1972 97.9668 30.9821 97.9501C30.7835 97.9501 30.5684 97.9418 30.3367 97.9252L29.6168 97.7756C29.0377 97.6259 28.4916 97.3932 27.9786 97.0773C27.449 96.7282 26.9195 96.3209 26.3899 95.8554C26.059 95.5894 25.7032 95.2818 25.3226 94.9327C24.9585 94.6002 24.5862 94.2427 24.2056 93.8603C23.8415 93.478 23.4774 93.079 23.1134 92.6633C22.7658 92.2477 22.4432 91.8404 22.1453 91.4414C21.8805 91.1089 21.6323 90.7764 21.4006 90.4439C21.1689 90.128 20.9373 89.8204 20.7056 89.5212C20.6228 89.4214 20.5401 89.3134 20.4574 89.197C20.3912 89.0973 20.325 89.0141 20.2588 88.9476C20.176 88.9144 20.1016 88.8396 20.0354 88.7232C19.9857 88.6234 19.9278 88.5237 19.8616 88.4239C19.7789 88.3242 19.7044 88.2161 19.6382 88.0998C19.572 88 19.5058 87.8919 19.4396 87.7756C18.9266 87.0939 18.4633 86.4622 18.0496 85.8803C17.6359 85.2818 17.2718 84.7498 16.9574 84.2843C16.7092 83.985 16.4609 83.6941 16.2127 83.4115C15.981 83.1122 15.7742 82.8296 15.5922 82.5636L15.3191 82.2643C15.3191 82.3641 15.3108 82.4722 15.2943 82.5885C15.2943 82.6883 15.2943 82.7963 15.2943 82.9127C15.2777 83.345 15.2612 83.7357 15.2446 84.0848C15.2446 84.4173 15.2198 84.7498 15.1702 85.0823C15.104 85.4148 15.0295 85.7224 14.9468 86.005C14.8806 86.271 14.7896 86.4788 14.6737 86.6284L14.5248 87.1521C14.4917 87.2685 14.4503 87.3682 14.4007 87.4514C14.351 87.5179 14.3097 87.5677 14.2766 87.601C14.2104 87.6841 14.1442 87.8337 14.078 88.0499C13.9952 88.2328 13.9456 88.4073 13.9291 88.5736C13.9125 88.7066 13.8877 88.8313 13.8546 88.9476C13.838 89.0806 13.8215 89.197 13.8049 89.2968C13.8049 89.4131 13.8132 89.4963 13.8298 89.5461L13.9291 89.7456C13.9456 89.8121 13.9621 89.862 13.9787 89.8953C13.9952 89.9451 14.0118 89.995 14.0283 90.0449C14.0283 90.0948 14.0035 90.128 13.9539 90.1446C13.9208 90.1613 13.8711 90.1862 13.8049 90.2195C13.7222 90.2693 13.6395 90.2943 13.5567 90.2943C13.4409 90.2943 13.325 90.3275 13.2092 90.394C13.143 90.4106 13.0851 90.4106 13.0354 90.394C12.9858 90.394 12.9362 90.4023 12.8865 90.419C12.7376 90.419 12.6714 90.394 12.6879 90.3441C12.721 90.2943 12.6879 90.2693 12.5886 90.2693L12.2908 90.5436C12.2577 90.5769 12.1915 90.5935 12.0922 90.5935C11.9267 90.5935 11.8357 90.5603 11.8191 90.4938C11.8191 90.4938 11.8026 90.4855 11.7695 90.4688L11.6702 90.394C11.5544 90.3774 11.4468 90.3026 11.3475 90.1696C11.2979 90.0698 11.2565 89.9618 11.2234 89.8454C11.1903 89.7456 11.1655 89.6043 11.1489 89.4214C11.1158 89.2386 11.091 89.0308 11.0745 88.798C11.0579 88.5819 11.0414 88.3325 11.0248 88.0499C11.0414 87.9169 11.0414 87.7756 11.0248 87.6259C11.0248 87.4597 11.0165 87.3101 11 87.1771C11 87.1438 11.0083 87.1189 11.0248 87.1022C11.0248 86.8362 11.0331 86.5702 11.0496 86.3042C11.0662 86.0216 11.0745 85.7806 11.0745 85.581C11.0579 85.4314 11.0579 85.2319 11.0745 84.9825C11.091 84.7332 11.1324 84.409 11.1986 84.01C11.2482 83.5278 11.3061 83.0042 11.3723 82.4389C11.4551 81.857 11.5378 81.2585 11.6206 80.6434L11.9184 78.6983L12.0425 77.4015C12.1087 76.9194 12.1749 76.4289 12.2411 75.9302C12.3239 75.4148 12.3983 74.9077 12.4645 74.409C12.4645 74.3259 12.4811 74.2261 12.5142 74.1097C12.5473 73.9934 12.5804 73.877 12.6135 73.7606C12.6631 73.6276 12.7045 73.5029 12.7376 73.3865C12.7707 73.2702 12.7789 73.1704 12.7624 73.0873C12.6962 72.8712 12.6962 72.6717 12.7624 72.4888C12.8451 72.3059 12.87 72.1064 12.8369 71.8903L12.812 71.7656C12.7624 71.5495 12.7789 71.3167 12.8617 71.0673L12.9113 70.818C12.9444 70.5852 12.9941 70.4106 13.0603 70.2943C13.0768 70.2111 13.0934 70.1363 13.1099 70.0698C13.143 70.0033 13.1761 69.9451 13.2092 69.8953C13.2754 69.7789 13.3581 69.7041 13.4574 69.6708L13.5319 69.6209C13.5815 69.5711 13.656 69.5461 13.7553 69.5461C13.838 69.5461 13.8877 69.5461 13.9042 69.5461C13.9208 69.5461 14.0118 69.5295 14.1773 69.4963C14.2269 69.4963 14.2766 69.4963 14.3262 69.4963C14.3759 69.4796 14.4255 69.4713 14.4751 69.4713C14.5413 69.4713 14.6158 69.5544 14.6985 69.7207C14.7978 69.8703 14.8392 69.995 14.8227 70.0948C14.8889 70.128 14.9468 70.1696 14.9964 70.2195L15.4184 71.0424C15.5177 71.1588 15.6004 71.2751 15.6666 71.3915C15.7328 71.5079 15.7825 71.5993 15.8156 71.6658V71.8155L15.8652 72.1646L15.9148 72.4888C15.9976 72.4057 16.0721 72.3142 16.1382 72.2145C16.2044 72.0981 16.2872 71.9817 16.3865 71.8653L16.7092 71.4913C16.7588 71.4414 16.7919 71.3915 16.8085 71.3416C16.8416 71.2918 16.8746 71.2502 16.9077 71.217C16.9574 71.1006 17.0236 70.9759 17.1063 70.8429C17.2056 70.7099 17.3132 70.5935 17.429 70.4938C17.6607 70.2111 17.8675 70.0283 18.0496 69.9451C18.2813 69.8121 18.5874 69.6874 18.968 69.5711C19.3652 69.4547 19.7292 69.4131 20.0602 69.4464L20.4574 69.3466H20.9538L21.3261 69.4713C21.8391 69.5212 22.2611 69.6542 22.5921 69.8703C22.9727 70.0532 23.2706 70.2195 23.4857 70.3691C23.7008 70.5187 23.9077 70.7099 24.1063 70.9426C24.189 71.0424 24.2469 71.1421 24.28 71.2419C24.3297 71.3416 24.3793 71.458 24.429 71.591C24.5117 71.6741 24.5779 71.7656 24.6275 71.8653C24.6937 71.9651 24.7599 72.0648 24.8261 72.1646C24.9254 72.281 25.0164 72.3973 25.0992 72.5137L25.2481 72.8878C25.3143 73.2702 25.3474 73.6775 25.3474 74.1097C25.3143 74.4921 25.2398 74.8745 25.124 75.2569C25.0247 75.6226 24.9006 75.9551 24.7516 76.2544C24.6193 76.5204 24.4703 76.7697 24.3048 77.0025C24.1394 77.2352 23.9656 77.4597 23.7836 77.6758C23.403 78.0914 23.0472 78.4489 22.7162 78.7481L22.1205 79.2718C21.9219 79.4214 21.715 79.5544 21.4999 79.6708C21.3013 79.7872 21.1027 79.8869 20.9042 79.9701C20.6063 80.0532 20.2753 80.1779 19.9113 80.3441L19.39 80.5436L19.0425 80.7681C18.9597 80.8013 18.8439 80.8595 18.695 80.9426C18.5626 81.0091 18.4716 81.0756 18.4219 81.1421L17.3297 81.5411ZM15.8652 79.2968C15.9148 79.33 15.9645 79.3633 16.0141 79.3965C16.0803 79.4131 16.1382 79.4381 16.1879 79.4713C16.2872 79.5046 16.3534 79.5212 16.3865 79.5212C16.4361 79.4381 16.5189 79.4048 16.6347 79.4214H16.7836C16.8498 79.4048 16.9077 79.3716 16.9574 79.3217L17.007 79.2718L17.0567 79.2469C17.2222 79.1804 17.3794 79.1222 17.5283 79.0723C17.6772 79.0058 17.8262 78.931 17.9751 78.8479C18.0909 78.8146 18.1902 78.7731 18.273 78.7232C18.3557 78.6733 18.455 78.6068 18.5709 78.5237C18.8025 78.3408 19.0094 78.1413 19.1914 77.9252C19.39 77.6924 19.6051 77.4264 19.8368 77.1272C20.2174 76.5952 20.5401 76.0216 20.8049 75.4065C21.0862 74.7914 21.2848 74.1679 21.4006 73.5362L21.4751 73.0125C21.4916 72.8628 21.4999 72.7215 21.4999 72.5885C21.4999 72.4389 21.4999 72.2976 21.4999 72.1646C21.5164 71.9651 21.5082 71.7822 21.4751 71.616C21.4585 71.4331 21.4337 71.2668 21.4006 71.1172L21.2517 70.8429L21.1772 70.793C20.9952 70.6101 20.7883 70.4938 20.5566 70.4439C20.3415 70.3774 20.0767 70.3857 19.7623 70.4688L19.5637 70.6185L19.39 70.7681C19.3073 70.8512 19.1914 70.9759 19.0425 71.1421C18.9101 71.3084 18.7777 71.483 18.6453 71.6658C18.3144 71.9651 18.0413 72.2976 17.8262 72.6633C17.6607 73.0291 17.5035 73.3782 17.3546 73.7107C17.2222 74.0266 17.0732 74.3259 16.9077 74.6085C16.825 74.7581 16.7505 74.8994 16.6843 75.0324C16.6347 75.1654 16.5768 75.3234 16.5106 75.5062C16.4775 75.5894 16.4444 75.6725 16.4113 75.7556C16.3947 75.8221 16.3699 75.8969 16.3368 75.9801C16.3368 75.9967 16.3286 76.0133 16.312 76.0299C16.312 76.0299 16.312 76.0466 16.312 76.0798L16.1879 76.6035C16.1217 77.0191 16.039 77.4846 15.9397 78C15.8569 78.5154 15.8321 78.9476 15.8652 79.2968ZM17.007 79.2718C16.9905 79.2718 16.9657 79.2884 16.9326 79.3217L17.007 79.2718Z" fill="white"/>
<path d="M33.4195 81.8404C33.5188 81.7406 33.6016 81.6908 33.6678 81.6908C33.8829 81.6908 33.9987 81.7988 34.0153 82.015C34.0318 82.148 33.9822 82.2976 33.8663 82.4638C33.7505 82.6301 33.6016 82.8296 33.4195 83.0623C33.3533 83.212 33.2292 83.4447 33.0472 83.7606C32.8652 84.0599 32.6831 84.3175 32.5011 84.5337L32.4515 84.7082C32.4515 84.7581 32.4184 84.8163 32.3522 84.8828C32.286 84.9493 32.2446 85.0158 32.2281 85.0823C32.1453 85.182 32.0543 85.2901 31.955 85.4065C31.8723 85.5229 31.7812 85.6392 31.682 85.7556C31.5496 85.9052 31.4172 86.0715 31.2848 86.2544C31.1524 86.4206 31.0283 86.5952 30.9125 86.7781L30.6642 87.1022C30.5153 87.2851 30.3581 87.468 30.1926 87.6509C30.0437 87.8171 29.8782 87.9667 29.6962 88.0998L29.3238 88.3491C28.8936 88.6318 28.4716 88.8728 28.0579 89.0723C27.6442 89.2884 27.1974 89.3882 26.7175 89.3716C26.6182 89.3716 26.4775 89.3633 26.2955 89.3466C26.13 89.33 25.948 89.3051 25.7494 89.2718C25.5508 89.2386 25.3522 89.1887 25.1537 89.1222C24.9716 89.0557 24.8061 88.9726 24.6572 88.8728H24.682C24.4503 88.7897 24.2104 88.6151 23.9622 88.3491C23.7139 88.0831 23.5485 87.6758 23.4657 87.1272C23.3168 86.8944 23.2423 86.6866 23.2423 86.5037L23.1927 86.404C23.1761 86.1546 23.1927 85.8969 23.2423 85.6309C23.2754 85.3649 23.3168 85.0989 23.3664 84.8329V84.7332C23.3995 84.6667 23.4161 84.6085 23.4161 84.5586L23.4657 84.3092C23.5154 84.0765 23.5733 83.8437 23.6395 83.611C23.7057 83.3782 23.805 83.1288 23.9374 82.8628L24.2104 82.4638L24.2352 82.414V82.4389C24.2849 82.3392 24.3428 82.2311 24.409 82.1147C24.4917 81.9817 24.5745 81.8487 24.6572 81.7157C24.7399 81.5827 24.8227 81.4663 24.9054 81.3666C24.9882 81.2668 25.0626 81.192 25.1288 81.1421C25.3605 80.9094 25.617 80.6683 25.8983 80.419C26.1796 80.1696 26.4279 80.0283 26.643 79.995C26.643 79.995 26.643 79.9701 26.643 79.9202C26.6099 79.8038 26.6099 79.7207 26.643 79.6708C26.825 79.5046 27.0402 79.3383 27.2884 79.1721C27.5366 79.0058 27.7269 78.9227 27.8593 78.9227C27.942 78.9227 28.0082 78.9144 28.0579 78.8978C28.1406 78.8811 28.2316 78.8728 28.3309 78.8728C28.4302 78.8728 28.4964 78.8978 28.5295 78.9476C28.5957 78.931 28.6536 78.9227 28.7033 78.9227C28.7695 78.9227 28.8274 78.9227 28.877 78.9227C28.9432 78.9227 29.0756 78.9476 29.2742 78.9975C29.4893 79.0474 29.7127 79.1471 29.9444 79.2968C30.1926 79.4464 30.416 79.6542 30.6146 79.9202C30.8132 80.1696 30.9456 80.5021 31.0118 80.9177C31.0118 81.3001 30.929 81.6658 30.7635 82.015C30.747 82.0648 30.7056 82.1563 30.6394 82.2893C30.5732 82.4223 30.4988 82.5719 30.416 82.7382C30.3333 82.8878 30.234 83.0374 30.1181 83.187C30.0189 83.3367 29.9278 83.4613 29.8451 83.5611L29.721 83.6608C29.539 83.8936 29.3486 84.1097 29.1501 84.3092C28.9515 84.5087 28.7446 84.6999 28.5295 84.8828C28.4468 84.9659 28.3309 85.074 28.182 85.207C28.0331 85.34 27.8758 85.473 27.7104 85.606C27.5449 85.739 27.3877 85.8637 27.2387 85.9801C27.0898 86.0798 26.9822 86.1463 26.916 86.1796L26.3451 86.4788C26.1962 86.6617 26.1135 86.8196 26.0969 86.9526C26.0804 87.069 26.0886 87.2186 26.1217 87.4015L26.1714 87.7756C26.1879 87.9086 26.2872 88.0083 26.4692 88.0748C26.6678 88.1579 26.8747 88.1995 27.0898 88.1995C27.2718 88.1995 27.5201 88.1413 27.8345 88.0249C28.1654 87.9086 28.5212 87.734 28.9018 87.5012C29.2825 87.2685 29.6796 86.9859 30.0933 86.6534C30.507 86.3209 30.8876 85.9302 31.2352 85.4813C31.2683 85.3982 31.3096 85.3234 31.3593 85.2569C31.4255 85.1737 31.4751 85.0989 31.5082 85.0324L31.8557 84.5087C32.0047 84.3092 32.1619 84.0848 32.3273 83.8354C32.5094 83.5694 32.6749 83.3117 32.8238 83.0623C32.9893 82.7963 33.1299 82.5553 33.2458 82.3392C33.3616 82.123 33.4195 81.9568 33.4195 81.8404ZM30.143 81.3915C30.0933 81.325 30.0106 81.2585 29.8947 81.192C29.7624 81.2253 29.5721 81.3583 29.3238 81.591C29.0921 81.8071 28.8687 82.0482 28.6536 82.3142L28.4799 82.4389L28.3309 82.6883L28.2565 82.8379C27.8097 83.4032 27.4373 83.9435 27.1394 84.4589C26.8416 84.9576 26.6513 85.3234 26.5685 85.5561C26.8168 85.4397 27.0402 85.2901 27.2387 85.1072L27.4621 84.9327L27.8841 84.6334C28.513 84.1014 29.026 83.5528 29.4231 82.9875C29.8368 82.4223 30.0768 81.8903 30.143 81.3915Z" fill="white"/>
<path d="M42.2872 81.5411C42.4361 81.3915 42.5768 81.3583 42.7091 81.4414C42.8581 81.5079 42.8994 81.6575 42.8333 81.8903C42.8333 81.99 42.7174 82.1812 42.4857 82.4638C42.3534 82.68 42.221 82.9044 42.0886 83.1372C41.9562 83.3533 41.7907 83.5694 41.5921 83.7855L41.5425 83.8853L41.4432 84.0599C41.2612 84.2427 41.0378 84.4339 40.773 84.6334C40.5248 84.8329 40.2269 85.0241 39.8794 85.207L39.7056 85.2818C39.6063 85.3317 39.4905 85.3815 39.3581 85.4314C39.2423 85.4813 39.1182 85.5229 38.9858 85.5561C38.9361 85.5894 38.8699 85.6226 38.7872 85.6559C38.721 85.6891 38.6631 85.714 38.6134 85.7307H38.3404C38.3238 86.0632 38.2411 86.3874 38.0922 86.7032C37.9432 87.0191 37.8191 87.2685 37.7198 87.4514C37.6702 87.5179 37.5957 87.5844 37.4964 87.6509C37.3971 87.7007 37.2978 87.7506 37.1986 87.8005L36.9752 87.9501C36.909 88 36.8097 88.0499 36.6773 88.0998C36.5449 88.1663 36.396 88.2244 36.2305 88.2743C36.0815 88.3242 35.9243 88.3658 35.7589 88.399C35.6099 88.4323 35.4858 88.4489 35.3865 88.4489C35.2872 88.4655 35.1631 88.4489 35.0142 88.399C34.8818 88.3658 34.7577 88.3242 34.6418 88.2743C34.6253 88.2743 34.5839 88.2577 34.5177 88.2244C34.3522 88.2411 34.1537 88.2078 33.922 88.1247C33.7069 88.0582 33.4752 87.9584 33.227 87.8254L33.2518 87.8504C33.0532 87.7506 32.8794 87.6093 32.7305 87.4264C32.5816 87.2436 32.4906 87.0357 32.4575 86.803C32.4244 86.5702 32.474 86.3541 32.6064 86.1546C32.7553 85.9551 32.9374 85.7889 33.1525 85.6559C33.2683 85.5395 33.4421 85.4397 33.6738 85.3566C33.9054 85.2569 34.1454 85.182 34.3936 85.1322C34.6418 85.0657 34.8652 85.0241 35.0638 85.0075C35.279 84.9909 35.4279 85.0075 35.5106 85.0574C35.6265 84.9909 35.7009 84.8662 35.734 84.6833C35.734 84.6667 35.734 84.65 35.734 84.6334C35.7506 84.6168 35.7589 84.6002 35.7589 84.5835C35.825 84.4505 35.8499 84.3425 35.8333 84.2594C35.8333 84.1264 35.8581 83.985 35.9078 83.8354C35.9409 83.719 35.9657 83.6027 35.9823 83.4863C35.9988 83.3533 35.9823 83.2203 35.9326 83.0873L36.0815 81.9651C36.0319 81.8653 35.9988 81.7656 35.9823 81.6658C35.9823 81.5661 35.974 81.4663 35.9574 81.3666C35.9574 81.1671 35.9161 80.9759 35.8333 80.793C35.8002 80.66 35.7671 80.527 35.734 80.394C35.7175 80.261 35.6678 80.1197 35.5851 79.9701C35.552 79.9368 35.5106 79.8454 35.461 79.6958C35.4113 79.7124 35.3203 79.8288 35.1879 80.0449C35.0721 80.261 34.9232 80.5353 34.7411 80.8678C34.526 81.2502 34.2861 81.6741 34.0213 82.1397C33.7731 82.5885 33.5083 82.9792 33.227 83.3117C33.1773 83.3782 33.1359 83.3865 33.1028 83.3367C33.0698 83.2868 33.0449 83.212 33.0284 83.1122C33.0284 82.9958 33.0449 82.8712 33.078 82.7382C33.1111 82.5885 33.1608 82.4472 33.227 82.3142C33.2766 82.2311 33.3842 82.0316 33.5497 81.7157C33.7151 81.3998 33.8972 81.059 34.0957 80.6933C34.2943 80.3109 34.4764 79.9451 34.6418 79.596C34.8073 79.2469 34.9149 79.0058 34.9645 78.8728L34.8156 76.0798C34.8487 75.9468 34.9149 75.8055 35.0142 75.6559C35.13 75.4896 35.2541 75.34 35.3865 75.207C35.4693 75.1072 35.5437 75.0075 35.6099 74.9077C35.6927 74.7914 35.7506 74.6916 35.7837 74.6085L35.883 74.5087C36.1477 74.2427 36.3298 74.0931 36.4291 74.0599C36.5283 74.01 36.669 74.0515 36.851 74.1845L36.9503 74.2594C37.0331 74.3092 37.1241 74.3674 37.2234 74.4339C37.3227 74.4838 37.4302 74.5586 37.5461 74.6584C37.695 74.8412 37.8357 75.0324 37.9681 75.2319C38.117 75.4148 38.2163 75.6226 38.2659 75.8554L38.3404 76.1546C38.3569 76.2045 38.3735 76.2627 38.39 76.3292C38.4066 76.3791 38.4231 76.4456 38.4397 76.5287C38.4728 76.7116 38.4149 76.9194 38.2659 77.1521C38.1335 77.3849 37.9763 77.6176 37.7943 77.8504C37.695 77.9834 37.5957 78.1247 37.4964 78.2743C37.4137 78.4073 37.3475 78.532 37.2978 78.6484C37.364 78.7481 37.4551 78.9227 37.5709 79.1721C37.6867 79.4048 37.8026 79.6542 37.9184 79.9202C38.0342 80.1696 38.1418 80.419 38.2411 80.6683C38.3404 80.9011 38.4149 81.0756 38.4645 81.192L38.7872 81.4913L39.0602 82.2394C39.143 82.3059 39.1761 82.3558 39.1595 82.389C39.143 82.4223 39.1182 82.4722 39.0851 82.5387C39.0685 82.5553 39.052 82.5802 39.0354 82.6135C39.0354 82.6467 39.0437 82.6717 39.0602 82.6883L39.0851 82.788L39.1347 82.9377C39.1347 83.0208 39.1513 83.1288 39.1844 83.2618C39.2174 83.3948 39.234 83.5029 39.234 83.586C39.234 83.6692 39.2174 83.744 39.1844 83.8105C39.1678 83.9268 39.0851 84.0848 38.9361 84.2843C38.8699 84.3674 38.812 84.4672 38.7624 84.5835C38.7127 84.6833 38.6796 84.783 38.6631 84.8828L39.1844 84.7082C39.3333 84.675 39.4739 84.6251 39.6063 84.5586C39.7387 84.4921 39.8546 84.4173 39.9538 84.3342H39.929L40.0035 84.2843C40.4338 83.985 40.7978 83.6608 41.0957 83.3117C41.3936 82.946 41.6831 82.547 41.9645 82.1147C42.0638 81.9651 42.1713 81.7739 42.2872 81.5411ZM35.3617 85.8304C35.3451 85.8138 35.2459 85.8221 35.0638 85.8554C34.8983 85.8886 34.6998 85.9468 34.4681 86.0299C34.2364 86.1131 34.0047 86.2211 33.7731 86.3541C33.5414 86.4705 33.3759 86.6118 33.2766 86.7781C33.2435 86.8778 33.2932 86.9776 33.4255 87.0773C33.5579 87.1604 33.7151 87.202 33.8972 87.202C34.0296 87.202 34.195 87.1604 34.3936 87.0773C34.9232 86.8612 35.2459 86.4456 35.3617 85.8304Z" fill="white"/>
<path d="M47.5392 72.7631C47.44 73.212 47.3241 73.6775 47.1917 74.1596C47.0593 74.6417 46.9104 75.1654 46.7449 75.7307L48.8052 75.8304C48.8714 75.847 48.9459 75.847 49.0286 75.8304C49.1279 75.7972 49.2189 75.7889 49.3016 75.8055C50.0132 75.872 50.609 75.98 51.0889 76.1297C51.5853 76.2793 51.9825 76.4539 52.2803 76.6534C52.5947 76.8529 52.8264 77.0607 52.9754 77.2768C53.1243 77.4929 53.2153 77.6924 53.2484 77.8753C53.265 78.0083 53.2319 78.0831 53.1491 78.0998C53.0664 78.1164 52.9919 78.1164 52.9257 78.0998C52.8926 78.1164 52.8595 78.1247 52.8264 78.1247C52.8099 78.1081 52.7851 78.0998 52.752 78.0998C52.7189 77.9501 52.5948 77.8088 52.3796 77.6758C52.1645 77.5262 51.8914 77.3932 51.5605 77.2768C51.2295 77.1438 50.8406 77.0357 50.3938 76.9526C49.9636 76.8529 49.5168 76.7781 49.0534 76.7282C48.9707 76.7448 48.9045 76.7448 48.8548 76.7282C48.8052 76.7116 48.7473 76.7032 48.6811 76.7032L46.5215 76.6035C46.3891 77.1521 46.2898 77.7174 46.2237 78.2993C46.174 78.8645 46.0582 79.4131 45.8761 79.9451L45.9258 80.5187C45.7272 81.1505 45.5203 81.7656 45.3052 82.3641C45.1066 82.946 44.9246 83.4946 44.7591 84.01C44.5936 84.5254 44.4613 84.9992 44.362 85.4314C44.2627 85.8637 44.2296 86.2377 44.2627 86.5536C44.2627 86.7199 44.3206 86.8778 44.4364 87.0274C44.5523 86.9942 44.6929 86.9111 44.8584 86.7781C45.0405 86.6284 45.2308 86.4539 45.4293 86.2544C45.6445 86.0549 45.8596 85.8304 46.0747 85.581C46.3064 85.3317 46.5215 85.0823 46.7201 84.8329C46.9683 84.517 47.2496 84.1762 47.5641 83.8105C47.8785 83.4447 48.1019 83.0873 48.2343 82.7382C48.2508 82.7215 48.317 82.5885 48.4328 82.3392C48.5652 82.0898 48.7142 81.8155 48.8797 81.5162C49.0451 81.217 49.2024 80.951 49.3513 80.7182C49.5168 80.4688 49.6326 80.3441 49.6988 80.3441C49.7815 80.3441 49.8395 80.4023 49.8726 80.5187C49.8726 80.5686 49.8477 80.6434 49.7981 80.7431C49.8312 80.7764 49.8477 80.8346 49.8477 80.9177C49.7981 81.2668 49.5581 81.8238 49.1279 82.5885C48.6976 83.3367 48.1102 84.1845 47.3655 85.1322L46.4719 86.2544C46.0416 86.7365 45.6114 87.1604 45.1811 87.5262C44.7509 87.8919 44.3785 88.0748 44.0641 88.0748C43.7166 88.0748 43.4435 88 43.245 87.8504C43.0629 87.6841 42.914 87.4763 42.7982 87.2269C42.6658 87.1106 42.5251 86.9859 42.3762 86.8529C42.2272 86.7032 42.0866 86.5536 41.9542 86.404C41.8218 86.2544 41.706 86.1131 41.6067 85.9801C41.5239 85.8304 41.4743 85.6891 41.4577 85.5561C41.4246 85.1239 41.4908 84.5254 41.6563 83.7606C41.8218 82.9792 42.07 82.148 42.401 81.2668L42.3762 81.0175C42.4424 80.7847 42.492 80.5603 42.5251 80.3441C42.5748 80.128 42.6409 79.9119 42.7237 79.6958C42.8726 79.197 42.9802 78.6816 43.0464 78.1496C43.1291 77.6176 43.2284 77.0773 43.3442 76.5287L41.9045 76.3541C41.3585 76.3042 40.8455 76.2294 40.3656 76.1297C39.8691 76.0299 39.4471 75.9135 39.0996 75.7805C38.7355 75.6475 38.4459 75.4896 38.2308 75.3067C37.9991 75.1239 37.875 74.9327 37.8585 74.7332C37.8585 74.65 37.8999 74.6085 37.9826 74.6085C38.0157 74.5919 38.0488 74.5835 38.0819 74.5835C38.115 74.5835 38.1646 74.6168 38.2308 74.6833L38.5783 74.6085C38.9589 74.7747 39.4058 74.9244 39.9187 75.0574C40.4317 75.1737 41.0771 75.2652 41.8549 75.3317C42.2024 75.3649 42.5168 75.3815 42.7982 75.3815C43.096 75.3815 43.3691 75.3982 43.6173 75.4314L43.5925 75.581L44.2627 73.7855C44.3123 73.6027 44.3702 73.4281 44.4364 73.2618C44.5192 73.0956 44.5771 72.921 44.6102 72.7382C44.6764 72.3225 44.726 71.8986 44.7591 71.4663C44.8088 71.0341 44.8501 70.6517 44.8832 70.3192C44.9163 69.9867 44.966 69.7124 45.0322 69.4963C45.0984 69.2801 45.2059 69.1721 45.3549 69.1721C45.4707 69.1721 45.6196 69.2136 45.8017 69.2968C46.0003 69.3799 46.1906 69.5046 46.3726 69.6708C46.5546 69.8204 46.7201 70.0199 46.869 70.2693C47.018 70.5187 47.109 70.8013 47.1421 71.1172C47.1421 71.1837 47.1421 71.2502 47.1421 71.3167C47.1421 71.3832 47.1338 71.458 47.1173 71.5411C47.1504 71.6076 47.1835 71.6991 47.2166 71.8155C47.2496 71.9318 47.2827 72.0565 47.3158 72.1895C47.3489 72.3059 47.382 72.4223 47.4151 72.5387C47.4482 72.6384 47.4896 72.7132 47.5392 72.7631Z" fill="white"/>
<path d="M51.998 86.8279C51.9152 86.8944 51.8159 86.9526 51.7001 87.0025C51.6008 87.0524 51.485 87.1106 51.3526 87.1771L51.3774 87.202L51.4022 87.2519C51.4022 87.2352 51.4271 87.2519 51.4767 87.3017C51.5264 87.335 51.5677 87.3682 51.6008 87.4015C51.667 87.4347 51.7249 87.4763 51.7746 87.5262C51.8242 87.5761 51.8573 87.6176 51.8739 87.6509L51.9235 87.8005L51.9483 87.8254C52.0973 88.0083 52.2297 88.1912 52.3455 88.3741C52.4779 88.5736 52.5772 88.7814 52.6434 88.9975L52.693 90.02C52.7261 90.286 52.7509 90.5436 52.7675 90.793C52.784 91.0424 52.7923 91.2835 52.7923 91.5162C52.7923 92.6301 52.5854 93.4946 52.1717 94.1097C51.7746 94.7415 51.2781 95.1239 50.6824 95.2569C50.6658 95.2569 50.6493 95.2569 50.6327 95.2569C50.6327 95.2735 50.6245 95.2818 50.6079 95.2818H50.5831C50.1528 95.182 49.8053 95.0407 49.5406 94.8579C49.2758 94.675 49.0524 94.4256 48.8703 94.1097C48.6883 93.8105 48.5228 93.4447 48.3739 93.0125C48.225 92.5802 48.0595 92.0732 47.8774 91.4913V91.2668C47.8444 91.1006 47.8361 90.9593 47.8526 90.8429L47.7037 89.9701L47.6044 89.3965C47.5713 89.197 47.5382 89.0308 47.5051 88.8978V88.9227L47.4803 88.7731C47.4637 88.6567 47.4555 88.5403 47.4555 88.4239C47.4389 88.3076 47.4306 88.1912 47.4306 88.0748L47.381 87.4264L47.4555 85.2818L47.4058 85.0823C47.4224 85.0324 47.4306 84.9742 47.4306 84.9077C47.4141 84.8412 47.3975 84.7747 47.381 84.7082V83.8603C47.381 83.2618 47.4141 82.5885 47.4803 81.8404C47.5465 81.0756 47.654 80.3026 47.803 79.5212C47.8857 79.0058 47.985 78.4738 48.1008 77.9252C48.2167 77.3599 48.3408 76.803 48.4732 76.2544C48.6056 75.7057 48.7462 75.182 48.8952 74.6833C49.0607 74.1679 49.2179 73.6941 49.3668 73.2618C49.6316 72.6135 49.9956 72.0648 50.459 71.616C50.9389 71.1671 51.4436 70.7764 51.9732 70.4439C52.2876 70.261 52.6185 70.0948 52.9661 69.9451C53.3136 69.7955 53.6776 69.6791 54.0582 69.596C54.1079 69.5794 54.1658 69.5711 54.232 69.5711C54.2982 69.5711 54.3644 69.5711 54.4306 69.5711C54.8112 69.5711 55.1753 69.6958 55.5228 69.9451C55.8868 70.1945 56.1599 70.6683 56.3419 71.3666C56.3916 71.5162 56.4164 71.6658 56.4164 71.8155C56.4164 71.9485 56.3998 72.0732 56.3667 72.1895C56.3502 72.3059 56.3254 72.4306 56.2923 72.5636C56.2592 72.6966 56.2261 72.8462 56.193 73.0125C56.1764 73.1621 56.1599 73.345 56.1433 73.5611L55.7213 73.8354C55.7048 73.8853 55.6965 73.9684 55.6965 74.0848C55.6965 74.2012 55.68 74.3508 55.6469 74.5337C55.6138 74.7165 55.5062 74.9825 55.3242 75.3317H55.349L55.1256 75.8304C55.0594 75.9135 54.9932 76.0299 54.927 76.1796C54.8774 76.3126 54.8195 76.4539 54.7533 76.6035C54.6705 76.7864 54.5878 76.9609 54.505 77.1272C54.4389 77.2934 54.3644 77.4347 54.2816 77.5511L53.9093 77.9751L53.6363 78.3491C53.6032 78.399 53.5618 78.4572 53.5121 78.5237C53.479 78.5736 53.4377 78.6234 53.388 78.6733L53.0902 79.0474C52.9081 79.2136 52.7344 79.3965 52.5689 79.596C52.42 79.7955 52.3041 79.9535 52.2214 80.0698L51.8987 80.1696C51.8159 80.3192 51.7415 80.4439 51.6753 80.5436C51.6422 80.5935 51.6091 80.66 51.576 80.7431C51.5429 80.8096 51.5015 80.9094 51.4519 81.0424C51.4353 81.0923 51.394 81.1754 51.3278 81.2918C51.2781 81.3915 51.2202 81.4913 51.154 81.591C51.0878 81.7074 51.0134 81.8736 50.9306 82.0898C50.881 82.2062 50.8479 82.3641 50.8313 82.5636C50.8148 82.7465 50.8065 82.946 50.8065 83.1621L50.732 84.01L50.6327 84.3591V84.4589C50.6327 84.4921 50.6245 84.517 50.6079 84.5337C50.6079 84.5503 50.6162 84.5752 50.6327 84.6085C50.6493 84.6417 50.6658 84.6833 50.6824 84.7332C50.6989 84.7664 50.7072 84.7914 50.7072 84.808C50.7403 84.8911 50.7569 85.0241 50.7569 85.207C50.7569 85.2901 50.7486 85.3649 50.732 85.4314C50.732 85.4979 50.732 85.5727 50.732 85.6559C50.7155 85.739 50.7072 85.8138 50.7072 85.8803C50.7072 85.9468 50.7072 86.0216 50.7072 86.1047C50.7072 86.1546 50.7072 86.2128 50.7072 86.2793C50.7238 86.3292 50.732 86.3791 50.732 86.4289C50.7486 86.4456 50.7569 86.4622 50.7569 86.4788L50.8065 86.4539L51.2781 86.3541C51.5429 86.2211 51.9814 85.9634 52.5937 85.581C53.206 85.182 53.8514 84.5669 54.5299 83.7357L54.7533 83.4364L55.7958 81.8653C55.8124 81.8321 55.8289 81.7905 55.8455 81.7406C55.862 81.6908 55.862 81.6326 55.8455 81.5661C55.9282 81.4663 56.0192 81.3998 56.1185 81.3666C56.2178 81.3333 56.3088 81.3167 56.3916 81.3167C56.4743 81.35 56.5239 81.4248 56.5405 81.5411C56.5405 81.6409 56.4908 81.7905 56.3916 81.99L56.3419 82.0648C56.3585 82.0815 56.3667 82.0981 56.3667 82.1147C56.3667 82.1978 56.3419 82.2643 56.2923 82.3142V82.2893L56.1433 82.5137L55.9448 82.7631V82.7382L55.8703 82.9875L55.7462 83.1621C55.7131 83.2951 55.6138 83.478 55.4483 83.7107C55.2994 83.9269 55.1504 84.1097 55.0015 84.2594L54.5795 84.9077C54.4802 85.0906 54.2982 85.2652 54.0334 85.4314C53.7852 85.581 53.5452 85.7473 53.3136 85.9302L52.8419 86.3541C52.7261 86.4539 52.5937 86.537 52.4448 86.6035C52.2958 86.6534 52.1469 86.7282 51.998 86.8279ZM51.1788 79.6958V79.7706L51.2037 79.7207C51.2699 79.6874 51.4271 79.5628 51.6753 79.3466C51.9401 79.1305 52.2214 78.8728 52.5192 78.5736C52.8337 78.2577 53.1315 77.9169 53.4129 77.5511C53.7107 77.1687 53.9176 76.803 54.0334 76.4539C54.232 76.1712 54.4223 75.847 54.6043 75.4813C54.8029 75.1155 54.985 74.7415 55.1504 74.3591C55.3159 73.9767 55.4483 73.5943 55.5476 73.212C55.6469 72.813 55.6965 72.4472 55.6965 72.1147C55.6965 71.9318 55.6717 71.749 55.6221 71.5661C55.5393 71.2336 55.3656 70.9593 55.1008 70.7431C54.8526 70.527 54.563 70.4439 54.232 70.4938C53.9341 70.5436 53.719 70.6185 53.5866 70.7182C53.4708 70.818 53.3549 70.9676 53.2391 71.1671L53.0405 71.5411C53.0405 71.5578 53.0322 71.5744 53.0157 71.591C53.0157 71.591 53.0157 71.5993 53.0157 71.616C52.9992 71.7157 52.9578 71.8071 52.8916 71.8903C52.6599 72.3225 52.4696 72.8213 52.3207 73.3865C52.1717 73.9352 52.0311 74.4838 51.8987 75.0324C51.8821 75.1488 51.8573 75.2652 51.8242 75.3815C51.8077 75.4813 51.7911 75.5894 51.7746 75.7057C51.6918 76.0382 51.6256 76.3874 51.576 76.7531C51.5264 77.1189 51.485 77.468 51.4519 77.8005C51.4188 78.0998 51.3857 78.399 51.3526 78.6983C51.3195 78.9809 51.2699 79.2469 51.2037 79.4963L51.1788 79.6958ZM51.2037 88.6733C51.154 88.5736 51.0878 88.4904 51.0051 88.4239C50.9389 88.3574 50.8644 88.2909 50.7817 88.2244C50.732 88.5736 50.7072 88.9892 50.7072 89.4713C50.7072 90.0698 50.732 90.6766 50.7817 91.2918C50.8479 91.9235 50.9306 92.4223 51.0299 92.788V92.8878L51.1044 93.0873L51.1788 93.3616C51.2119 93.4613 51.2533 93.5445 51.303 93.611C51.3526 93.6941 51.394 93.7274 51.4271 93.7107C51.5594 93.6775 51.6422 93.5777 51.6753 93.4115C51.7084 93.2452 51.7415 93.0623 51.7746 92.8628C51.7746 92.8462 51.7746 92.8296 51.7746 92.813C51.7911 92.813 51.7994 92.8047 51.7994 92.788L51.8242 92.4638C51.8408 92.3308 51.8408 92.1812 51.8242 92.015C51.8242 91.8487 51.8159 91.6825 51.7994 91.5162C51.7828 91.3832 51.7663 91.2419 51.7498 91.0923C51.7498 90.9593 51.7498 90.8263 51.7498 90.6933C51.7332 90.66 51.7249 90.6185 51.7249 90.5686C51.7249 90.5353 51.7249 90.5021 51.7249 90.4688V90.419L51.7001 89.995C51.667 89.9618 51.6505 89.9368 51.6505 89.9202C51.6505 89.9036 51.6422 89.8869 51.6256 89.8703V89.8454L51.5512 89.5461C51.5181 89.4464 51.4767 89.3383 51.4271 89.2219C51.3774 89.1056 51.3195 88.9809 51.2533 88.8479L51.2285 88.7731L51.2037 88.6733Z" fill="white"/>
<path d="M61.5891 86.1546C61.4237 86.1546 61.2582 86.1214 61.0927 86.0549C61.0596 86.1214 61.0182 86.1712 60.9686 86.2045C60.9355 86.2377 60.8941 86.271 60.8445 86.3042C60.7783 86.3541 60.7121 86.4206 60.6459 86.5037C60.5797 86.5702 60.5218 86.6866 60.4721 86.8529C60.3563 87.0856 60.1825 87.3101 59.9509 87.5262C59.7357 87.7257 59.4958 87.9002 59.231 88.0499C58.9662 88.1995 58.6849 88.3159 58.387 88.399C58.1057 88.4988 57.8492 88.5486 57.6175 88.5486H57.5431C57.5265 88.5486 57.51 88.5403 57.4934 88.5237C57.4769 88.5237 57.4603 88.5237 57.4438 88.5237L57.0963 88.4239L56.6991 88.2244H56.575C55.9958 88.1413 55.4663 87.8421 54.9864 87.3267C54.523 86.7947 54.2582 86.1629 54.1921 85.4314C54.1755 85.182 54.1838 84.9576 54.2169 84.7581C54.2334 84.542 54.2582 84.3259 54.2913 84.1097C54.2913 84.0765 54.2996 84.0515 54.3162 84.0349C54.3162 84.0017 54.3162 83.9684 54.3162 83.9352C54.2831 83.6359 54.341 83.2702 54.4899 82.8379C54.6223 82.389 54.8209 81.9402 55.0857 81.4913C55.367 81.0258 55.6979 80.5935 56.0786 80.1945C56.4592 79.7789 56.8729 79.4547 57.3197 79.2219L57.4438 79.1222C57.7086 78.9393 57.9899 78.8063 58.2878 78.7232C58.5856 78.6401 58.8504 78.5985 59.0821 78.5985C59.2145 78.5985 59.3386 78.6068 59.4544 78.6234C59.5703 78.6401 59.6861 78.6733 59.8019 78.7232C60.2818 78.9559 60.6707 79.2136 60.9686 79.4963C61.283 79.7789 61.465 80.1613 61.5147 80.6434V80.6683C61.5312 80.7515 61.523 80.8429 61.4899 80.9426C61.4568 81.0424 61.283 81.0923 60.9686 81.0923H60.7948C60.2818 81.1421 59.7937 81.3666 59.3303 81.7656C58.8669 82.1646 58.4532 82.6384 58.0892 83.187C57.7417 83.7357 57.4603 84.3092 57.2452 84.9077C57.0466 85.5062 56.9473 86.0299 56.9473 86.4788C56.9473 86.6118 56.9887 86.7614 57.0715 86.9277C57.1707 87.0939 57.2783 87.2519 57.3941 87.4015C57.5265 87.5345 57.6589 87.6509 57.7913 87.7506C57.9237 87.8504 58.0478 87.9002 58.1636 87.9002C58.2464 87.9002 58.3126 87.8836 58.3622 87.8504C58.4119 87.8171 58.4698 87.7839 58.536 87.7506C58.5856 87.7174 58.6435 87.6841 58.7097 87.6509C58.7759 87.601 58.8504 87.5594 58.9331 87.5262C59.0821 87.4597 59.2393 87.335 59.4048 87.1521C59.5703 86.9692 59.7192 86.7781 59.8516 86.5786C60.0005 86.3624 60.1246 86.1546 60.2239 85.9551C60.3397 85.7556 60.4142 85.606 60.4473 85.5062C60.1991 85.1904 60.0419 84.9327 59.9757 84.7332C59.9095 84.5337 59.8764 84.3425 59.8764 84.1596C59.8764 84.0432 59.8764 83.9268 59.8764 83.8105C59.8929 83.6941 59.8929 83.5611 59.8764 83.4115C59.8433 83.0125 59.8929 82.68 60.0253 82.414C60.1577 82.1313 60.3563 81.99 60.6211 81.99C60.6542 81.99 60.679 81.99 60.6955 81.99C60.7121 81.9734 60.7369 81.9651 60.77 81.9651C60.9024 81.9485 61.0265 81.9568 61.1423 81.99C61.2582 82.0066 61.3326 82.0815 61.3657 82.2145H61.4154C61.4319 82.2311 61.465 82.2976 61.5147 82.414C61.5809 82.5137 61.6222 82.6301 61.6388 82.7631C61.6553 82.7963 61.6636 82.8545 61.6636 82.9377C61.6967 83.0208 61.7298 83.0707 61.7629 83.0873C61.796 83.1039 61.796 83.1787 61.7629 83.3117C61.7298 83.4946 61.7215 83.611 61.7381 83.6608V83.7357C61.7381 83.7523 61.7298 83.7689 61.7133 83.7855C61.7133 83.8022 61.7133 83.8188 61.7133 83.8354V83.8853L61.7381 83.8603V83.8853C61.7546 83.9019 61.7629 83.9435 61.7629 84.01C61.7629 84.0765 61.7712 84.143 61.7877 84.2095C61.8043 84.2594 61.8125 84.3175 61.8125 84.384L61.7629 84.6085C61.7298 84.7249 61.6884 84.8412 61.6388 84.9576C61.6057 85.0574 61.556 85.1654 61.4899 85.2818L61.5147 85.3317C61.5478 85.3815 61.5891 85.4314 61.6388 85.4813C61.6884 85.5145 61.8043 85.5312 61.9863 85.5312C62.1352 85.5312 62.3255 85.473 62.5572 85.3566C62.8054 85.2236 63.004 85.0657 63.153 84.8828C63.3846 84.6002 63.6329 84.251 63.8976 83.8354C64.179 83.4198 64.4024 83.054 64.5678 82.7382C64.5844 82.7215 64.6092 82.6717 64.6423 82.5885C64.6754 82.5054 64.7168 82.3973 64.7664 82.2643C64.8657 82.015 64.9733 81.7656 65.0891 81.5162C65.205 81.2502 65.3291 81.1172 65.4614 81.1172C65.6269 81.1172 65.7262 81.217 65.7593 81.4165L65.6352 81.7157H65.66C65.5442 82.2311 65.3456 82.7797 65.0643 83.3616C64.783 83.9269 64.452 84.4422 64.0714 84.9077C63.7073 85.3566 63.3019 85.714 62.8551 85.9801C62.4248 86.2294 62.0029 86.2876 61.5891 86.1546ZM60.8445 84.6085V84.6833C60.8776 84.6002 60.9024 84.517 60.9189 84.4339C60.9355 84.3508 60.952 84.2677 60.9686 84.1845V83.8853C60.952 83.7855 60.9272 83.6941 60.8941 83.611C60.8776 83.5278 60.8196 83.478 60.7204 83.4613C60.7038 83.4613 60.6873 83.4863 60.6707 83.5362C60.6542 83.586 60.6459 83.6359 60.6459 83.6858C60.6459 83.719 60.6376 83.7606 60.6211 83.8105C60.6211 83.8437 60.6293 83.9269 60.6459 84.0599V84.0848C60.679 84.118 60.7038 84.1762 60.7204 84.2594C60.7535 84.3259 60.7783 84.4007 60.7948 84.4838L60.8445 84.6085Z" fill="white"/>
<path d="M66.8965 86.9526C66.5159 86.9194 66.1849 86.7864 65.9036 86.5536C65.6388 86.3042 65.4154 86.0299 65.2334 85.7307C65.0679 85.4314 64.9355 85.1405 64.8362 84.8579C64.7535 84.5752 64.7038 84.3674 64.6873 84.2344C64.6377 83.8853 64.6128 83.5112 64.6128 83.1122C64.6128 82.1812 64.7369 81.1671 64.9852 80.0698C64.9852 79.9701 64.9934 79.7789 65.01 79.4963C65.0265 79.2136 65.0514 78.8894 65.0845 78.5237C65.1341 78.1579 65.1837 77.7922 65.2334 77.4264C65.2996 77.0441 65.3575 76.7199 65.4072 76.4539C65.4072 76.138 65.432 75.8138 65.4816 75.4813C65.5478 75.1322 65.6223 74.8246 65.705 74.5586C65.7712 74.3092 65.8291 74.0599 65.8788 73.8105C65.945 73.5445 65.9863 73.2702 66.0029 72.9875C66.0029 72.9709 66.0112 72.8961 66.0277 72.7631C66.0608 72.6135 66.1022 72.4472 66.1518 72.2643L66.0774 72.0898C66.0774 72.0066 66.0856 71.9568 66.1022 71.9401C66.1518 71.5245 66.2015 71.084 66.2511 70.6185C66.3008 70.153 66.367 69.729 66.4497 69.3466C66.5324 68.9476 66.6234 68.6234 66.7227 68.3741C66.8386 68.1247 66.971 68 67.1199 68C67.3019 68 67.575 68.1081 67.939 68.3242C68.3197 68.5237 68.6258 68.8396 68.8575 69.2718C69.0891 69.4048 69.3208 69.6209 69.5525 69.9202C69.7842 70.2195 69.9414 70.5769 70.0241 70.9925C70.0738 71.2751 70.0324 71.6575 69.9 72.1397C69.7676 72.6052 69.6104 73.1205 69.4284 73.6858V73.7606C69.4449 73.8437 69.4532 73.9185 69.4532 73.985C69.4698 74.0515 69.478 74.1264 69.478 74.2095L68.8078 76.5037C68.8409 76.7032 68.8657 76.9443 68.8823 77.2269C68.8988 77.4929 68.9154 77.7091 68.9319 77.8753C68.9319 77.9086 68.9319 77.9418 68.9319 77.9751C68.9485 77.9917 68.9568 78.0166 68.9568 78.0499V78.1496L68.2369 80.3441C68.2369 80.4273 68.2452 80.4938 68.2617 80.5436V80.5935L68.3114 80.8678C68.3279 80.9177 68.3362 81.0258 68.3362 81.192C68.3362 81.2918 68.3527 81.4248 68.3858 81.591C68.27 81.9235 68.1624 82.2394 68.0632 82.5387C67.9804 82.8213 67.8977 83.1039 67.8149 83.3865L67.939 84.2095C67.7239 84.808 67.6329 85.2569 67.666 85.5561C67.6991 85.6725 67.757 85.7307 67.8398 85.7307C67.939 85.7307 68.1045 85.6143 68.3362 85.3815C68.5844 85.1322 68.8492 84.8163 69.1305 84.4339C69.4118 84.0515 69.6932 83.6276 69.9745 83.1621C70.2724 82.6966 70.5371 82.2394 70.7688 81.7905H70.744C70.7771 81.7406 70.7936 81.6908 70.7936 81.6409C70.8102 81.591 70.8267 81.5495 70.8433 81.5162L70.9177 81.217V81.2419C70.9508 81.1754 71.0005 81.084 71.0667 80.9676C71.1329 80.8346 71.1991 80.6933 71.2653 80.5436C71.3811 80.3109 71.4887 80.0948 71.5879 79.8953C71.6872 79.6958 71.77 79.596 71.8362 79.596H71.8858C71.9686 79.5129 72.0596 79.4713 72.1589 79.4713C72.2747 79.4713 72.3574 79.5295 72.4071 79.6459C72.4071 79.729 72.374 79.8703 72.3078 80.0698C72.2582 80.2527 72.0927 80.6018 71.8113 81.1172H71.8362L71.7369 81.3666C71.5879 81.7656 71.3645 82.2394 71.0667 82.788C70.7854 83.32 70.4709 83.852 70.1234 84.384C70.14 84.3674 70.1234 84.3924 70.0738 84.4589C70.0407 84.5087 70.0076 84.5503 69.9745 84.5835C69.8421 84.783 69.7014 84.9909 69.5525 85.207C69.4201 85.4231 69.2795 85.6226 69.1305 85.8055C68.9816 85.9884 68.8326 86.1463 68.6837 86.2793C68.5348 86.3957 68.4024 86.4539 68.2866 86.4539C68.27 86.4539 68.2535 86.4539 68.2369 86.4539C68.2204 86.4372 68.2038 86.4289 68.1873 86.4289C67.9225 86.5952 67.6908 86.7282 67.4922 86.8279C67.2937 86.9111 67.0951 86.9526 66.8965 86.9526Z" fill="white"/>
<path d="M76.4186 82.1147C76.5676 81.9651 76.7248 81.9152 76.8903 81.9651C77.0557 81.9983 77.0806 82.148 76.9647 82.414C76.9978 82.4805 76.9978 82.5303 76.9647 82.5636C76.9482 82.5636 76.9399 82.5719 76.9399 82.5885C76.8406 82.7215 76.7579 82.8545 76.6917 82.9875L76.4931 83.3367C76.3442 83.6193 76.1704 83.9268 75.9718 84.2594C75.7898 84.5752 75.5829 84.9077 75.3513 85.2569V85.2319C75.3182 85.2984 75.3016 85.3649 75.3016 85.4314V85.4564L75.1279 85.7307C74.9789 85.9634 74.8217 86.1962 74.6562 86.4289C74.4907 86.6451 74.3087 86.8612 74.1101 87.0773L73.8867 87.3267C73.6882 87.5761 73.473 87.8171 73.2414 88.0499L73.1172 88.1247C72.9352 88.2411 72.7697 88.3491 72.6208 88.4489C72.4719 88.5486 72.3229 88.6318 72.174 88.6983V88.6733C71.992 88.7731 71.8099 88.8313 71.6279 88.8479C71.4624 88.8811 71.2969 88.8894 71.1314 88.8728C70.7012 88.7897 70.3371 88.5985 70.0393 88.2993C69.7579 88 69.5511 87.6675 69.4187 87.3017C69.3525 87.1189 69.3111 86.9277 69.2946 86.7282C69.2615 86.5287 69.2284 86.3375 69.1953 86.1546C69.1787 86.0715 69.1705 85.9884 69.1705 85.9052C69.1539 85.8055 69.1456 85.714 69.1456 85.6309C69.1456 85.5478 69.1539 85.473 69.1705 85.4065C69.1705 85.34 69.1705 85.2652 69.1705 85.182V84.7332C69.2036 84.4672 69.2449 84.2095 69.2946 83.9601C69.3442 83.7107 69.4021 83.4447 69.4683 83.1621L69.5428 82.8628C69.5924 82.6966 69.6421 82.5303 69.6917 82.3641C69.7414 82.1978 69.7993 82.0233 69.8655 81.8404C70.0144 81.4746 70.1551 81.1172 70.2875 80.7681C70.4199 80.4023 70.5357 80.0532 70.635 79.7207C70.6515 79.6874 70.6598 79.6376 70.6598 79.5711C70.7426 79.1554 70.8998 78.9061 71.1314 78.8229H71.1066C71.2059 78.7564 71.3052 78.7232 71.4045 78.7232C71.5038 78.7066 71.6362 78.7149 71.8016 78.7481C72.0664 78.798 72.3395 78.9975 72.6208 79.3466C72.9187 79.6791 73.109 80.1197 73.1917 80.6683C73.2083 80.8013 73.2 80.951 73.1669 81.1172C73.1338 81.2668 73.0924 81.4248 73.0428 81.591L72.9931 81.7905C72.9931 81.8071 73.0014 81.8238 73.018 81.8404L73.0428 81.9152C73.0759 82.015 73.0924 82.1064 73.0924 82.1895V82.4888C73.0924 82.5387 73.0924 82.5885 73.0924 82.6384C73.109 82.6883 73.1172 82.7382 73.1172 82.788C73.0676 82.9875 73.0097 83.1787 72.9435 83.3616C72.8773 83.5445 72.8111 83.7107 72.7449 83.8603L72.5711 84.2344C72.5711 84.2677 72.5711 84.2926 72.5711 84.3092C72.5877 84.3259 72.596 84.3508 72.596 84.384C72.4636 84.7165 72.3477 85.0574 72.2485 85.4065C72.1492 85.739 72.0747 86.0632 72.0251 86.3791V86.404C72.0416 86.4372 72.0499 86.4705 72.0499 86.5037C72.0499 86.5204 72.0251 86.5536 71.9754 86.6035L71.8513 86.7032C71.6693 87.0357 71.5782 87.3101 71.5782 87.5262C71.5782 87.7257 71.6775 87.8504 71.8761 87.9002C71.9754 87.867 72.0995 87.7922 72.2485 87.6758C72.4139 87.5594 72.596 87.4098 72.7945 87.2269C72.9435 87.1438 73.0841 87.0357 73.2165 86.9027C73.3489 86.7531 73.4813 86.6118 73.6137 86.4788L73.7874 86.2793C74.1681 85.8138 74.5238 85.3234 74.8548 84.808C75.1858 84.276 75.5167 83.7273 75.8477 83.1621C75.9801 82.9626 76.0877 82.788 76.1704 82.6384C76.2531 82.4722 76.3359 82.2976 76.4186 82.1147ZM73.713 75.0574C73.3986 75.0241 73.0676 74.8994 72.7201 74.6833C72.538 74.5503 72.3808 74.3425 72.2485 74.0599C72.1161 73.7772 72.0499 73.4613 72.0499 73.1122C72.0333 72.8462 72.0581 72.6301 72.1243 72.4638C72.2071 72.2976 72.3146 72.148 72.447 72.015C72.8111 71.6825 73.1917 71.5162 73.5889 71.5162C73.7709 71.4996 74.0108 71.5495 74.3087 71.6658C74.6231 71.7822 74.8962 71.9235 75.1279 72.0898C75.2106 72.1729 75.2768 72.2477 75.3264 72.3142C75.3761 72.3807 75.4092 72.4555 75.4257 72.5387C75.4588 72.6883 75.4505 72.813 75.4009 72.9127C75.3678 73.0125 75.3099 73.1205 75.2271 73.2369V73.212C75.1941 73.2951 75.1527 73.3782 75.103 73.4613C75.0699 73.5278 75.0203 73.611 74.9541 73.7107V73.6858C74.921 73.7689 74.8714 73.8603 74.8052 73.9601C74.7555 74.0432 74.7142 74.1264 74.6811 74.2095C74.4494 74.5752 74.2756 74.808 74.1598 74.9077C74.0605 75.0075 73.9116 75.0574 73.713 75.0574Z" fill="white"/>
<path d="M83.0018 86.4788C82.9191 86.4788 82.8363 86.4788 82.7536 86.4788C82.6874 86.4622 82.6129 86.4372 82.5302 86.404L82.4805 86.4788L82.282 86.7531C82.2489 86.803 82.1827 86.8529 82.0834 86.9027C82.0006 86.9526 81.9427 87.0441 81.9096 87.1771C81.8931 87.1937 81.8848 87.2103 81.8848 87.2269V87.2519C81.8186 87.3849 81.6945 87.5345 81.5125 87.7007C81.3304 87.867 81.1567 87.9917 80.9912 88.0748C80.9416 88.1081 80.8919 88.1413 80.8423 88.1746C80.7926 88.2078 80.7512 88.2411 80.7181 88.2743C80.6023 88.3574 80.4948 88.4239 80.3955 88.4738C80.2962 88.5403 80.1638 88.5902 79.9983 88.6234C79.7832 88.7066 79.5763 88.7564 79.3777 88.7731C79.1957 88.7897 78.9888 88.7897 78.7572 88.7731L78.5089 88.6733L78.1863 88.4988L78.0621 88.4489C78.029 88.4489 77.9959 88.4406 77.9629 88.4239C77.9463 88.4239 77.9298 88.4239 77.9132 88.4239C77.8305 88.4239 77.7229 88.4073 77.5905 88.3741C77.0941 88.1413 76.6555 87.8088 76.2749 87.3766C75.8612 86.8778 75.6295 86.2793 75.5799 85.581C75.5799 85.448 75.5882 85.2735 75.6047 85.0574C75.6047 84.8246 75.6047 84.5919 75.6047 84.3591C75.6213 84.1264 75.6378 83.9019 75.6544 83.6858C75.6875 83.4697 75.7123 83.2951 75.7288 83.1621C75.7619 82.7298 75.8447 82.3308 75.9771 81.9651C76.0763 81.6991 76.2005 81.4414 76.3494 81.192C76.5149 80.9426 76.6804 80.7016 76.8458 80.4688C77.0775 80.1031 77.3257 79.7872 77.5905 79.5212V79.5461C77.7726 79.33 77.9711 79.1388 78.1863 78.9726C78.4014 78.8063 78.6248 78.6567 78.8565 78.5237L79.0054 78.4489C79.2205 78.2993 79.4274 78.1912 79.626 78.1247C79.8411 78.0416 80.0562 77.9834 80.2713 77.9501C80.503 77.9169 80.6933 77.9169 80.8423 77.9501C81.0077 77.9668 81.1815 78.0083 81.3635 78.0748L81.438 78.1247C81.6862 78.2577 81.9262 78.3907 82.1579 78.5237C82.3895 78.6401 82.5964 78.7814 82.7784 78.9476C82.977 79.0973 83.1259 79.2718 83.2252 79.4713C83.341 79.6708 83.399 79.8953 83.399 80.1446C83.4321 80.2278 83.3907 80.3109 83.2749 80.394C83.1756 80.4605 82.977 80.4771 82.6791 80.4439C82.4805 80.4605 82.2406 80.5187 81.9593 80.6185C81.6945 80.7182 81.4214 80.8429 81.1401 80.9925C80.8588 81.1421 80.5858 81.3167 80.321 81.5162C80.0728 81.6991 79.8659 81.882 79.7004 82.0648C79.5184 82.3142 79.3446 82.5885 79.1792 82.8878C79.0137 83.1704 78.873 83.4697 78.7572 83.7855C78.7241 83.8687 78.691 84.0349 78.6579 84.2843C78.6248 84.5337 78.5917 84.7747 78.5586 85.0075L78.4841 85.4564V85.5561C78.4345 85.7722 78.3931 85.98 78.36 86.1796C78.3269 86.3791 78.3104 86.5536 78.3104 86.7032C78.3104 86.8695 78.36 87.069 78.4593 87.3017C78.5586 87.5179 78.6662 87.6426 78.782 87.6758C78.9806 87.7756 79.204 87.8254 79.4522 87.8254C79.5846 87.8254 79.7253 87.8088 79.8742 87.7756C80.0231 87.7423 80.1721 87.7007 80.321 87.6509C80.4037 87.6176 80.4699 87.5761 80.5196 87.5262C80.5692 87.4597 80.6271 87.3849 80.6933 87.3017C80.743 87.2352 80.7843 87.1687 80.8174 87.1022C80.8671 87.0357 80.925 86.9859 80.9912 86.9526C81.2229 86.7697 81.4132 86.5619 81.5621 86.3292C81.711 86.0798 81.8021 85.8803 81.8352 85.7307C81.6035 85.581 81.3718 85.2984 81.1401 84.8828C80.925 84.4505 80.7843 84.01 80.7181 83.5611C80.7678 83.1122 80.834 82.7714 80.9167 82.5387C80.9995 82.3059 81.0822 82.1397 81.165 82.0399C81.2642 81.9235 81.3635 81.857 81.4628 81.8404C81.5787 81.8238 81.6945 81.8155 81.8103 81.8155C81.9924 81.8155 82.1992 81.8653 82.4309 81.9651C82.6626 82.0482 82.8032 82.2145 82.8529 82.4638H82.9522C83.0018 82.5137 83.0266 82.6135 83.0266 82.7631C83.0597 82.8462 83.0763 82.921 83.0763 82.9875C83.0928 83.054 83.0928 83.1538 83.0763 83.2868C83.0763 83.2868 83.0928 83.3034 83.1259 83.3367L83.2004 83.4364C83.2831 83.5362 83.3162 83.6276 83.2997 83.7107C83.2831 83.7772 83.2583 83.8603 83.2252 83.9601L83.1756 84.1596L83.2004 84.3342L83.25 84.7082C83.25 84.7581 83.1921 84.8911 83.0763 85.1072C82.977 85.3067 82.886 85.4896 82.8032 85.6559H82.9273C82.9935 85.6725 83.068 85.6808 83.1507 85.6808C83.3328 85.714 83.5231 85.6642 83.7217 85.5312C83.9368 85.3815 84.1354 85.1904 84.3174 84.9576C84.4994 84.7581 84.6897 84.5503 84.8883 84.3342C85.0869 84.1014 85.2938 83.8437 85.5089 83.5611C85.542 83.4946 85.5585 83.4697 85.5585 83.4863C85.6413 83.3865 85.7075 83.2785 85.7571 83.1621C85.8233 83.0457 85.8978 82.9293 85.9805 82.813C86.2122 82.414 86.4521 82.015 86.7004 81.616C86.7666 81.5661 86.841 81.5411 86.9238 81.5411C87.0065 81.5245 87.081 81.5411 87.1472 81.591C87.2134 81.6243 87.2465 81.6908 87.2465 81.7905C87.263 81.8736 87.2216 81.99 87.1223 82.1397L87.1472 82.1147C86.9982 82.5636 86.75 83.0457 86.4025 83.5611C86.0715 84.0765 85.7075 84.5586 85.3103 85.0075C84.9131 85.4397 84.5077 85.8055 84.094 86.1047C83.6803 86.3874 83.3162 86.5121 83.0018 86.4788ZM82.1827 85.0823L82.282 84.8579L82.4061 84.4838C82.4226 84.4173 82.4474 84.3674 82.4805 84.3342C82.5136 84.2843 82.5302 84.2344 82.5302 84.1845C82.5302 84.1679 82.5302 84.1596 82.5302 84.1596C82.5467 84.143 82.555 84.1264 82.555 84.1097L82.4309 83.5611C82.3978 83.345 82.2985 83.1538 82.133 82.9875C82.0999 82.9709 82.0586 82.9543 82.0089 82.9377C81.9758 82.9044 81.9344 82.8878 81.8848 82.8878C81.8848 82.8712 81.86 82.8878 81.8103 82.9377C81.8103 82.9377 81.7938 83.0042 81.7607 83.1372C81.7772 83.1704 81.7772 83.2203 81.7607 83.2868C81.7441 83.3367 81.7276 83.3865 81.711 83.4364C81.6945 83.5195 81.6779 83.6359 81.6614 83.7855C81.6614 83.9352 81.7276 84.1929 81.86 84.5586V84.7332L82.1827 85.0823Z" fill="white"/>
<path opacity="0.1" d="M0.5 58H87.5" stroke="white"/>
<g clip-path="url(#clip0_90_2)">
<path opacity="0.831" fill-rule="evenodd" clip-rule="evenodd" d="M43.3353 -0.152435C43.945 -0.152435 44.5548 -0.152435 45.1646 -0.152435C45.3115 0.126939 45.413 0.431818 45.4694 0.762199C45.1716 1.60459 44.9685 2.46841 44.8597 3.35366C45.4822 4.86726 45.8889 6.44247 46.0792 8.07927C46.0664 8.92031 45.9139 9.73333 45.6219 10.5183C44.8027 12.0603 43.9389 12.1112 43.0304 10.6707C43.3911 9.84327 43.5941 8.97942 43.6402 8.07927C43.1027 6.54427 42.6963 4.96909 42.4207 3.35366C42.5103 2.12102 42.8152 0.952321 43.3353 -0.152435Z" fill="#BD9675"/>
<path opacity="0.861" fill-rule="evenodd" clip-rule="evenodd" d="M34.7988 2.59147C35.3984 2.51847 35.9576 2.6201 36.4756 2.89634C36.6186 3.94647 36.4661 4.96275 36.0183 5.94512C36.6838 7.58479 37.1917 9.26162 37.5427 10.9756C37.3637 12.0934 37.0079 13.1605 36.4756 14.1768C35.8658 14.5833 35.2561 14.5833 34.6463 14.1768C34.4509 13.0626 34.6033 11.9955 35.1036 10.9756C34.9292 9.9439 34.5734 8.97845 34.0366 8.07927C33.6646 6.12732 33.9189 4.29805 34.7988 2.59147Z" fill="#BD9675"/>
<path opacity="0.853" fill-rule="evenodd" clip-rule="evenodd" d="M52.1768 2.59147C52.7765 2.51847 53.3356 2.6201 53.8536 2.89634C54.0499 4.00625 53.8975 5.07333 53.3963 6.09756C54.0569 7.62229 54.5652 9.1975 54.9207 10.8232C54.7246 11.8548 54.4704 12.871 54.1585 13.872C53.6073 14.45 52.9466 14.6024 52.1768 14.3293C51.9996 14.0571 51.8978 13.7523 51.8719 13.4146C52.0752 12.6016 52.2783 11.7886 52.4816 10.9756C51.7926 9.36634 51.3862 7.68952 51.2621 5.94512C51.1521 4.7029 51.4569 3.585 52.1768 2.59147Z" fill="#BD9675"/>
<path opacity="0.895" fill-rule="evenodd" clip-rule="evenodd" d="M69.8597 27.2866C69.8597 29.0142 69.8597 30.7418 69.8597 32.4695C68.1231 37.0543 64.7694 39.4933 59.7987 39.7866C58.2029 43.6692 55.3575 46.0573 51.2621 46.9512C48.1133 47.1036 44.963 47.1543 41.8109 47.1036C42.0438 46.336 42.3487 45.6247 42.7255 44.9695C45.5886 45.0771 48.4343 44.9247 51.2621 44.5122C55.3847 43.2326 57.6712 40.4381 58.1218 36.128C58.4185 30.6125 58.3167 25.1248 57.817 19.6646C57.5883 19.4738 57.334 19.3214 57.0548 19.2073C48.5182 19.004 39.9816 19.004 31.445 19.2073C31.1658 19.3214 30.9116 19.4738 30.6828 19.6646C30.5306 21.2875 30.4798 22.9135 30.5304 24.5427C29.7111 24.5927 28.8981 24.5419 28.0914 24.3902C27.862 24.1857 27.7603 23.9317 27.7865 23.628C28.0383 22.1596 28.1908 20.6352 28.2438 19.0549C28.7011 18.1911 29.3617 17.5305 30.2255 17.0732C39.5752 16.8699 48.9246 16.8699 58.2743 17.0732C59.6661 17.7 60.3773 18.7671 60.4084 20.2744C65.0661 20.6178 68.2164 22.9552 69.8597 27.2866ZM60.4084 22.4085C64.645 23.139 67.084 25.6289 67.7255 29.878C67.2206 34.0899 64.8831 36.5796 60.7133 37.3476C60.4188 36.7695 60.3173 36.1597 60.4084 35.5183C64.6874 34.9439 66.4661 32.5049 65.7438 28.2012C64.8664 25.655 63.088 24.3338 60.4084 24.2378C60.4084 23.628 60.4084 23.0183 60.4084 22.4085ZM60.4084 26.6768C63.3889 27.3534 64.2529 29.0811 62.9999 31.8597C62.3307 32.6006 61.5176 33.1088 60.5609 33.3841C60.4084 31.1506 60.3578 28.9149 60.4084 26.6768Z" fill="#BD9675"/>
<path opacity="0.867" fill-rule="evenodd" clip-rule="evenodd" d="M44.0794 25.8929C44.0641 26.0707 44.1237 26.2195 44.2581 26.3393C44.7308 26.4281 45.2073 26.4579 45.6874 26.4286C47.7832 26.6279 49.54 27.5207 50.9578 29.1071C51.588 30.6986 52.1835 32.3057 52.7445 33.9286C53.0523 35.4154 53.0819 36.9034 52.8338 38.3929C52.613 38.7766 52.4343 39.1932 52.2978 39.6429C51.8029 40.3759 51.1478 40.9116 50.3325 41.25C49.5584 41.25 48.7841 41.25 48.01 41.25C46.9342 40.6236 45.9813 39.82 45.1514 38.8393C44.5353 38.3971 43.8505 38.1888 43.0968 38.2143C42.2382 38.4171 41.3747 38.6552 40.5062 38.9286C39.9049 38.8773 39.369 38.6689 38.8983 38.3036C37.8093 38.0775 36.7969 38.2561 35.8611 38.8393C35.0311 39.82 34.0783 40.6236 33.0025 41.25C32.2283 41.25 31.4541 41.25 30.6799 41.25C29.3474 40.632 28.4541 39.6202 28 38.2143C28 37.0238 28 35.8334 28 34.6429C28.648 32.5711 29.452 30.5473 30.4119 28.5714C32.1572 27.1958 34.1522 26.4518 36.397 26.3393C37.0831 25.6393 37.9168 25.2226 38.8983 25.0893C39.9702 24.9702 41.0422 24.9702 42.1142 25.0893C42.8433 25.2026 43.4984 25.4704 44.0794 25.8929ZM39.9702 26.25C41.7132 26.1045 43.1127 26.6998 44.1688 28.0357C44.9867 31.6552 44.0041 34.7207 41.2209 37.2321C41.0013 37.3716 40.7631 37.4609 40.5062 37.5C39.5759 37.1389 38.8315 36.5438 38.273 35.7143C37.5447 34.4238 36.9194 33.0845 36.397 31.6964C35.7547 31.5048 35.3974 31.743 35.3251 32.4107C35.7017 33.848 36.2972 35.1873 37.1117 36.4286C34.7692 36.2238 32.8933 35.1523 31.4839 33.2143C30.4877 31.6243 30.6962 30.2255 32.1092 29.0179C33.0992 28.3899 34.1711 28.0923 35.3251 28.125C35.0707 28.8474 34.9814 29.5914 35.0571 30.3571C35.3428 30.6314 35.6704 30.7207 36.0397 30.625C36.2802 29.5489 36.6672 28.5072 37.201 27.5C38.0082 26.7863 38.9312 26.3697 39.9702 26.25ZM45.6874 28.0357C47.4515 28.069 48.8509 28.7832 49.8859 30.1786C50.2403 31.092 50.1809 31.9848 49.7072 32.8571C48.3226 34.9929 46.3872 36.1834 43.9008 36.4286C45.6598 33.8623 46.2553 31.0646 45.6874 28.0357ZM29.7866 33.3929C31.0695 35.4175 32.8561 36.8164 35.1464 37.5893C34.4913 38.0059 33.9553 38.5416 33.5385 39.1964C31.7395 40.4427 30.3995 40.0557 29.5186 38.0357C29.1669 36.4659 29.2562 34.9182 29.7866 33.3929ZM50.8685 33.3929C52.0725 35.358 52.0427 37.3223 50.7792 39.2857C50.0092 39.9873 49.1457 40.1361 48.1886 39.7321C47.3607 39.0836 46.5866 38.3693 45.866 37.5893C47.5812 36.9852 49.0403 36.003 50.2432 34.6429C50.5478 34.272 50.7563 33.8554 50.8685 33.3929Z" fill="#BD9675"/>
</g>
<defs>
<clipPath id="clip0_90_2">
<rect width="42.5" height="50" fill="white" transform="translate(28)"/>
</clipPath>
</defs>
</svg>
