<svg width="98" height="73" viewBox="0 0 98 73" fill="none" xmlns="http://www.w3.org/2000/svg">
<path d="M8 59L0 49H98L90 59L98 69H0L8 59Z" fill="#BD9675"/>
<path d="M23.0602 55.872C22.7642 55.72 22.4402 55.588 22.0882 55.476C21.7362 55.364 21.3922 55.308 21.0562 55.308C20.5922 55.308 20.2202 55.416 19.9402 55.632C19.6682 55.848 19.5322 56.136 19.5322 56.496C19.5322 56.768 19.6202 57 19.7962 57.192C19.9722 57.376 20.2042 57.536 20.4922 57.672C20.7802 57.808 21.0802 57.936 21.3922 58.056C21.6642 58.16 21.9322 58.276 22.1962 58.404C22.4602 58.532 22.6962 58.692 22.9042 58.884C23.1202 59.076 23.2882 59.312 23.4082 59.592C23.5362 59.872 23.6002 60.22 23.6002 60.636C23.6002 61.092 23.4842 61.508 23.2522 61.884C23.0282 62.26 22.7042 62.556 22.2802 62.772C21.8562 62.988 21.3522 63.096 20.7682 63.096C20.3842 63.096 20.0162 63.052 19.6642 62.964C19.3202 62.876 19.0002 62.764 18.7042 62.628C18.4082 62.484 18.1442 62.336 17.9122 62.184L18.4282 61.272C18.6202 61.408 18.8402 61.54 19.0882 61.668C19.3362 61.788 19.5962 61.888 19.8682 61.968C20.1402 62.04 20.4042 62.076 20.6602 62.076C20.9322 62.076 21.2002 62.028 21.4642 61.932C21.7362 61.828 21.9602 61.672 22.1362 61.464C22.3122 61.256 22.4002 60.98 22.4002 60.636C22.4002 60.34 22.3202 60.096 22.1602 59.904C22.0082 59.704 21.8042 59.536 21.5482 59.4C21.2922 59.256 21.0202 59.128 20.7322 59.016C20.4602 58.912 20.1842 58.8 19.9042 58.68C19.6242 58.552 19.3642 58.4 19.1242 58.224C18.8842 58.04 18.6922 57.816 18.5482 57.552C18.4042 57.288 18.3322 56.968 18.3322 56.592C18.3322 56.136 18.4402 55.74 18.6562 55.404C18.8802 55.06 19.1842 54.792 19.5682 54.6C19.9522 54.4 20.3922 54.292 20.8882 54.276C21.4482 54.276 21.9402 54.344 22.3642 54.48C22.7962 54.616 23.1762 54.784 23.5042 54.984L23.0602 55.872ZM25.5566 54.324H26.7206V63H25.5566V54.324ZM36.7248 63.276L30.0168 56.472L30.3528 56.556L30.3768 63H29.2128V54.06H29.2728L35.9088 60.888L35.6328 60.828L35.6088 54.324H36.7608V63.276H36.7248ZM45.6278 62.352C45.4838 62.448 45.2878 62.556 45.0398 62.676C44.7918 62.796 44.4998 62.896 44.1638 62.976C43.8358 63.056 43.4758 63.096 43.0838 63.096C42.4118 63.088 41.8038 62.968 41.2598 62.736C40.7238 62.504 40.2678 62.188 39.8918 61.788C39.5158 61.388 39.2238 60.928 39.0158 60.408C38.8158 59.88 38.7158 59.32 38.7158 58.728C38.7158 58.08 38.8198 57.484 39.0278 56.94C39.2438 56.388 39.5438 55.912 39.9278 55.512C40.3118 55.104 40.7638 54.788 41.2838 54.564C41.8118 54.34 42.3878 54.228 43.0118 54.228C43.5318 54.228 44.0038 54.3 44.4278 54.444C44.8518 54.58 45.2158 54.744 45.5198 54.936L45.0518 56.016C44.8118 55.856 44.5198 55.704 44.1758 55.56C43.8398 55.416 43.4638 55.344 43.0478 55.344C42.6238 55.344 42.2238 55.428 41.8478 55.596C41.4718 55.764 41.1398 56 40.8518 56.304C40.5638 56.608 40.3358 56.964 40.1678 57.372C40.0078 57.772 39.9278 58.204 39.9278 58.668C39.9278 59.14 39.9998 59.58 40.1438 59.988C40.2958 60.388 40.5078 60.736 40.7798 61.032C41.0598 61.328 41.3958 61.56 41.7878 61.728C42.1798 61.896 42.6198 61.98 43.1078 61.98C43.5478 61.98 43.9398 61.912 44.2838 61.776C44.6278 61.64 44.9118 61.488 45.1358 61.32L45.6278 62.352ZM47.5878 54.324H53.2278V55.44H48.7518V58.08H52.7478V59.196H48.7518V61.884H53.3958V63H47.5878V54.324ZM58.6008 55.104H60.6648V63H59.5008V56.22H58.6008V55.104ZM64.7461 60.408C64.3381 60.408 63.9541 60.3 63.5941 60.084C63.2341 59.868 62.9381 59.572 62.7061 59.196C62.4821 58.812 62.3701 58.38 62.3701 57.9C62.3701 57.34 62.4981 56.856 62.7541 56.448C63.0181 56.032 63.3581 55.712 63.7741 55.488C64.1901 55.264 64.6381 55.152 65.1181 55.152C65.6541 55.152 66.1341 55.268 66.5581 55.5C66.9901 55.732 67.3301 56.056 67.5781 56.472C67.8341 56.888 67.9621 57.368 67.9621 57.912C67.9621 58.536 67.8421 59.104 67.6021 59.616C67.3701 60.128 67.0621 60.596 66.6781 61.02C66.2941 61.436 65.8701 61.82 65.4061 62.172C64.9421 62.516 64.4781 62.844 64.0141 63.156L63.2461 62.304C63.9101 61.96 64.4861 61.6 64.9741 61.224C65.4621 60.848 65.8461 60.472 66.1261 60.096C66.4061 59.712 66.5701 59.352 66.6181 59.016L66.9541 59.028C66.7141 59.476 66.4261 59.82 66.0901 60.06C65.7621 60.292 65.3141 60.408 64.7461 60.408ZM65.1661 59.424C65.6381 59.424 66.0221 59.288 66.3181 59.016C66.6221 58.744 66.7741 58.392 66.7741 57.96V57.744C66.7661 57.448 66.6901 57.184 66.5461 56.952C66.4021 56.72 66.2101 56.536 65.9701 56.4C65.7301 56.264 65.4621 56.196 65.1661 56.196C64.8701 56.196 64.5981 56.264 64.3501 56.4C64.1101 56.536 63.9181 56.728 63.7741 56.976C63.6381 57.216 63.5701 57.5 63.5701 57.828C63.5701 58.148 63.6421 58.432 63.7861 58.68C63.9301 58.92 64.1221 59.104 64.3621 59.232C64.6021 59.36 64.8701 59.424 65.1661 59.424ZM71.1914 60.408C70.7834 60.408 70.3994 60.3 70.0394 60.084C69.6794 59.868 69.3834 59.572 69.1514 59.196C68.9274 58.812 68.8154 58.38 68.8154 57.9C68.8154 57.34 68.9434 56.856 69.1994 56.448C69.4634 56.032 69.8034 55.712 70.2194 55.488C70.6354 55.264 71.0834 55.152 71.5634 55.152C72.0994 55.152 72.5794 55.268 73.0034 55.5C73.4354 55.732 73.7754 56.056 74.0234 56.472C74.2794 56.888 74.4074 57.368 74.4074 57.912C74.4074 58.536 74.2874 59.104 74.0474 59.616C73.8154 60.128 73.5074 60.596 73.1234 61.02C72.7394 61.436 72.3154 61.82 71.8514 62.172C71.3874 62.516 70.9234 62.844 70.4594 63.156L69.6914 62.304C70.3554 61.96 70.9314 61.6 71.4194 61.224C71.9074 60.848 72.2914 60.472 72.5714 60.096C72.8514 59.712 73.0154 59.352 73.0634 59.016L73.3994 59.028C73.1594 59.476 72.8714 59.82 72.5354 60.06C72.2074 60.292 71.7594 60.408 71.1914 60.408ZM71.6114 59.424C72.0834 59.424 72.4674 59.288 72.7634 59.016C73.0674 58.744 73.2194 58.392 73.2194 57.96V57.744C73.2114 57.448 73.1354 57.184 72.9914 56.952C72.8474 56.72 72.6554 56.536 72.4154 56.4C72.1754 56.264 71.9074 56.196 71.6114 56.196C71.3154 56.196 71.0434 56.264 70.7954 56.4C70.5554 56.536 70.3634 56.728 70.2194 56.976C70.0834 57.216 70.0154 57.5 70.0154 57.828C70.0154 58.148 70.0874 58.432 70.2314 58.68C70.3754 58.92 70.5674 59.104 70.8074 59.232C71.0474 59.36 71.3154 59.424 71.6114 59.424ZM80.3367 55.104L77.1807 63H75.8727L78.7167 56.052L79.1247 56.22H75.1767V55.104H80.3367Z" fill="white"/>
<g clip-path="url(#clip0_125_4)">
<path opacity="0.831" fill-rule="evenodd" clip-rule="evenodd" d="M44.5466 -0.115967C45.0057 -0.115967 45.4648 -0.115967 45.9239 -0.115967C46.0346 0.096358 46.111 0.328065 46.1535 0.579155C45.9292 1.21937 45.7763 1.87587 45.6944 2.54867C46.1631 3.699 46.4693 4.89616 46.6126 6.14013C46.6029 6.77932 46.4882 7.39721 46.2682 7.99379C45.6514 9.16574 45.0011 9.20437 44.317 8.10964C44.5886 7.48077 44.7415 6.82425 44.7761 6.14013C44.3714 4.97353 44.0654 3.77639 43.8579 2.54867C43.9254 1.61186 44.155 0.723648 44.5466 -0.115967Z" fill="#BD9675"/>
<path opacity="0.861" fill-rule="evenodd" clip-rule="evenodd" d="M38.1191 1.96954C38.5706 1.91406 38.9916 1.9913 39.3816 2.20125C39.4893 2.99934 39.3745 3.77171 39.0373 4.51832C39.5384 5.76447 39.9208 7.03886 40.1851 8.34149C40.0503 9.191 39.7824 10.002 39.3816 10.7744C38.9225 11.0834 38.4634 11.0834 38.0043 10.7744C37.8571 9.9276 37.9719 9.11662 38.3486 8.34149C38.2173 7.55739 37.9494 6.82365 37.5452 6.14027C37.2651 4.65679 37.4566 3.26655 38.1191 1.96954Z" fill="#BD9675"/>
<path opacity="0.853" fill-rule="evenodd" clip-rule="evenodd" d="M51.2037 1.96954C51.6552 1.91406 52.0762 1.9913 52.4662 2.20125C52.6141 3.04478 52.4993 3.85575 52.1219 4.63418C52.6194 5.79297 53.002 6.99013 53.2697 8.22564C53.1221 9.00964 52.9306 9.78202 52.6958 10.5427C52.2808 10.982 51.7833 11.0979 51.2037 10.8903C51.0703 10.6835 50.9936 10.4517 50.9741 10.1952C51.1272 9.57726 51.2801 8.95939 51.4332 8.34149C50.9144 7.11845 50.6084 5.84406 50.515 4.51832C50.4322 3.57423 50.6617 2.72463 51.2037 1.96954Z" fill="#BD9675"/>
<path opacity="0.895" fill-rule="evenodd" clip-rule="evenodd" d="M64.5178 20.7379C64.5178 22.0509 64.5178 23.3639 64.5178 24.6769C63.2103 28.1614 60.6852 30.015 56.9425 30.2379C55.741 33.1887 53.5986 35.0037 50.515 35.683C48.1441 35.7989 45.7721 35.8374 43.3987 35.7989C43.5741 35.2155 43.8037 34.6749 44.0874 34.1769C46.2432 34.2587 48.3858 34.1429 50.515 33.8294C53.619 32.8569 55.3407 30.7331 55.68 27.4574C55.9033 23.2656 55.8266 19.095 55.4504 14.9452C55.2782 14.8002 55.0868 14.6844 54.8765 14.5977C48.449 14.4432 42.0214 14.4432 35.5939 14.5977C35.3836 14.6844 35.1922 14.8002 35.02 14.9452C34.9053 16.1786 34.8671 17.4144 34.9052 18.6526C34.2883 18.6906 33.6762 18.6519 33.0688 18.5367C32.896 18.3813 32.8195 18.1882 32.8392 17.9574C33.0288 16.8414 33.1436 15.6829 33.1835 14.4818C33.5279 13.8253 34.0252 13.3233 34.6756 12.9757C41.7154 12.8212 48.755 12.8212 55.7947 12.9757C56.8426 13.4521 57.3782 14.2631 57.4016 15.4086C60.9085 15.6697 63.2805 17.4461 64.5178 20.7379ZM57.4016 17.0306C60.5915 17.5858 62.428 19.4781 62.9109 22.7074C62.5308 25.9085 60.7708 27.8006 57.6312 28.3843C57.4094 27.9449 57.333 27.4815 57.4016 26.994C60.6234 26.5575 61.9627 24.7038 61.4188 21.433C60.7582 19.4979 59.4192 18.4938 57.4016 18.4208C57.4016 17.9574 57.4016 17.494 57.4016 17.0306ZM57.4016 20.2745C59.6457 20.7887 60.2963 22.1017 59.3528 24.2135C58.849 24.7766 58.2367 25.1628 57.5164 25.3721C57.4016 23.6746 57.3635 21.9754 57.4016 20.2745Z" fill="#BD9675"/>
<path opacity="0.867" fill-rule="evenodd" clip-rule="evenodd" d="M45.1069 19.6786C45.0953 19.8137 45.1402 19.9268 45.2414 20.0179C45.5973 20.0854 45.9561 20.108 46.3176 20.0857C47.8956 20.2372 49.2184 20.9157 50.2859 22.1214C50.7604 23.3309 51.2087 24.5523 51.6311 25.7857C51.8629 26.9157 51.8852 28.0466 51.6984 29.1786C51.5321 29.4702 51.3976 29.7868 51.2948 30.1286C50.9222 30.6857 50.4289 31.0928 49.8151 31.35C49.2322 31.35 48.6492 31.35 48.0663 31.35C47.2564 30.8739 46.5388 30.2632 45.914 29.5179C45.4501 29.1818 44.9345 29.0235 44.367 29.0429C43.7205 29.197 43.0704 29.3779 42.4164 29.5857C41.9637 29.5468 41.5602 29.3884 41.2058 29.1107C40.3859 28.9389 39.6236 29.0746 38.9189 29.5179C38.294 30.2632 37.5766 30.8739 36.7666 31.35C36.1837 31.35 35.6007 31.35 35.0178 31.35C34.0145 30.8803 33.3419 30.1113 33 29.0429C33 28.1381 33 27.2334 33 26.3286C33.4879 24.754 34.0933 23.216 34.816 21.7143C36.1301 20.6688 37.6323 20.1034 39.3225 20.0179C39.839 19.4859 40.4668 19.1692 41.2058 19.0679C42.0129 18.9774 42.82 18.9774 43.6271 19.0679C44.1761 19.1539 44.6694 19.3575 45.1069 19.6786ZM42.0129 19.95C43.3252 19.8394 44.379 20.2918 45.1741 21.3071C45.79 24.0579 45.0501 26.3877 42.9545 28.2964C42.7892 28.4024 42.6099 28.4703 42.4164 28.5C41.716 28.2256 41.1555 27.7733 40.7349 27.1429C40.1866 26.1621 39.7158 25.1442 39.3225 24.0893C38.8389 23.9437 38.5698 24.1247 38.5153 24.6321C38.7989 25.7245 39.2473 26.7424 39.8606 27.6857C38.0968 27.5301 36.6843 26.7158 35.6232 25.2429C34.8731 24.0345 35.0301 22.9714 36.094 22.0536C36.8394 21.5763 37.6465 21.3502 38.5153 21.375C38.3238 21.924 38.2566 22.4895 38.3136 23.0714C38.5287 23.2799 38.7754 23.3477 39.0534 23.275C39.2345 22.4571 39.5259 21.6655 39.9278 20.9C40.5356 20.3576 41.2306 20.041 42.0129 19.95ZM46.3176 21.3071C47.6458 21.3324 48.6995 21.8753 49.4788 22.9357C49.7457 23.6299 49.7009 24.3085 49.3443 24.9714C48.3017 26.5946 46.8445 27.4994 44.9723 27.6857C46.2968 25.7354 46.7452 23.6091 46.3176 21.3071ZM34.3452 25.3786C35.3112 26.9173 36.6564 27.9805 38.3808 28.5679C37.8876 28.8845 37.484 29.2916 37.1701 29.7893C35.8156 30.7364 34.8067 30.4423 34.1434 28.9071C33.8786 27.7141 33.9459 26.5378 34.3452 25.3786ZM50.2187 25.3786C51.1252 26.8721 51.1027 28.365 50.1514 29.8571C49.5716 30.3904 48.9215 30.5034 48.2008 30.1964C47.5775 29.7035 46.9946 29.1607 46.4521 28.5679C47.7435 28.1087 48.8421 27.3623 49.7478 26.3286C49.9772 26.0467 50.1342 25.7301 50.2187 25.3786Z" fill="#BD9675"/>
</g>
<defs>
<clipPath id="clip0_125_4">
<rect width="32" height="38" fill="white" transform="translate(33)"/>
</clipPath>
</defs>
</svg>
