<svg width="32" height="32" viewBox="0 0 32 32" fill="none" xmlns="http://www.w3.org/2000/svg">
<g clip-path="url(#clip0_4288_201)">
<path d="M30.6666 15.3333C30.6666 13.496 29.1719 12 27.3333 12H23.9999V8H1.33325V28.6667C1.33325 30.504 2.82792 32 4.66659 32H20.6666C22.5053 32 23.9999 30.504 23.9999 28.6667V25.3333H30.6666V15.3333ZM22.6666 28.6667C22.6666 29.7693 21.7693 30.6667 20.6666 30.6667H4.66659C3.56392 30.6667 2.66659 29.7693 2.66659 28.6667V9.33333H22.6666V28.6667ZM29.3333 24H23.9999V13.3333H27.3333C28.4359 13.3333 29.3333 14.2307 29.3333 15.3333V24ZM13.3333 5.33333H11.9999V0H13.3333V5.33333ZM18.6666 5.33333H17.3333V0H18.6666V5.33333ZM7.99992 5.33333H6.66659V0H7.99992V5.33333Z" fill="#BD9675"/>
</g>
<defs>
<clipPath id="clip0_4288_201">
<rect width="32" height="32" fill="white"/>
</clipPath>
</defs>
</svg>
