<svg width="32" height="32" viewBox="0 0 32 32" fill="none" xmlns="http://www.w3.org/2000/svg">
<g clip-path="url(#clip0_4288_226)">
<path d="M24 12.012C19.5853 12.012 15.9946 16.492 15.9946 22C15.9946 27.508 19.5853 31.988 24 31.988C28.4146 31.988 32.0053 27.508 32.0053 22C32.0053 16.492 28.4146 12.012 24 12.012ZM17.328 22C17.328 17.452 20.0466 13.712 23.4866 13.3706C23.6293 13.5506 25.9826 16.6386 23.4066 21.6986C21.2386 25.952 22.1653 29.0666 22.9026 30.5373C19.744 29.856 17.328 26.288 17.328 22ZM24.5133 30.6293C24.3706 30.4493 22.0173 27.3613 24.5933 22.3013C26.7613 18.048 25.8346 14.9333 25.0973 13.4626C28.256 14.144 30.672 17.712 30.672 22C30.672 26.548 27.9533 30.288 24.5133 30.6293ZM16.728 1.93731C13.6053 -1.18536 7.74663 -0.412025 3.6693 3.66931C-0.408033 7.74797 -1.18537 13.6053 1.93863 16.7293C3.23063 18.0213 4.9893 18.6466 6.8973 18.6466C9.60263 18.6466 12.6066 17.3906 14.9973 14.9986C19.0746 10.92 19.852 5.06264 16.728 1.93864V1.93731ZM4.61197 4.61197C6.7493 2.47331 9.41197 1.34131 11.7613 1.34131C13.136 1.34131 14.404 1.72931 15.396 2.53064C15.3613 2.78131 14.72 6.75997 9.11463 8.70264C4.37863 10.344 2.7493 13.3573 2.2053 14.944C0.458633 12.2013 1.4053 7.81598 4.61063 4.61197H4.61197ZM14.0546 14.0546C10.6666 17.444 5.95997 18.3093 3.2693 16.136C3.30397 15.8893 3.94263 11.9066 9.55063 9.96397C14.2866 8.32264 15.916 5.30931 16.46 3.72264C18.2066 6.46531 17.26 10.8506 14.0546 14.0546Z" fill="#BD9675"/>
</g>
<defs>
<clipPath id="clip0_4288_226">
<rect width="32" height="32" fill="white"/>
</clipPath>
</defs>
</svg>
