<svg width="32" height="32" viewBox="0 0 32 32" fill="none" xmlns="http://www.w3.org/2000/svg">
<path d="M30.6666 6C30.6666 4.16133 29.1719 2.66667 27.3333 2.66667H26.5999C26.2906 1.14667 24.9426 0 23.3333 0H8.66659C7.05592 0 5.71059 1.14667 5.39992 2.66667H4.66659C2.82925 2.66667 1.33325 4.16133 1.33325 6V9.33333H2.73992L5.40659 32H26.5919L29.2586 9.33333H30.6666V6ZM25.4079 30.6667H6.59325L5.33859 20H11.3626C11.6213 22.996 13.6026 25.3333 15.9999 25.3333C18.3973 25.3333 20.3786 22.996 20.6373 20H26.6626L25.4079 30.6667ZM12.6666 19.3333C12.6666 16.76 14.1626 14.6667 15.9999 14.6667C17.8373 14.6667 19.3333 16.76 19.3333 19.3333C19.3333 21.9067 17.8386 24 15.9999 24C14.1613 24 12.6666 21.9067 12.6666 19.3333ZM26.8199 18.6667H20.6386C20.3799 15.6707 18.3986 13.3333 16.0013 13.3333C13.6039 13.3333 11.6226 15.6707 11.3639 18.6667H5.18125L4.08259 9.33333H27.9173L26.8199 18.6667ZM29.3333 8H2.66659V6C2.66659 4.89733 3.56392 4 4.66659 4H6.66659V3.33333C6.66659 2.23067 7.56392 1.33333 8.66659 1.33333H23.3333C24.4359 1.33333 25.3333 2.23067 25.3333 3.33333V4H27.3333C28.4359 4 29.3333 4.89733 29.3333 6V8Z" fill="#BD9675"/>
</svg>
