<svg width="32" height="32" viewBox="0 0 32 32" fill="none" xmlns="http://www.w3.org/2000/svg">
<g clip-path="url(#clip0_4291_611)">
<path d="M20 5.90667C20 6.17333 20.16 6.42667 20.4133 6.53333L23.96 8.02667L25.3867 11.5733C25.4933 11.8267 25.7333 11.9867 26 11.9867C26.2667 11.9867 26.52 11.8267 26.6133 11.5733L28.0267 8.02667L31.5733 6.61333C31.8267 6.50667 31.9867 6.26667 31.9867 6C31.9867 5.73333 31.8267 5.48 31.5733 5.38667L28.0267 3.97333L26.6133 0.426667C26.4133 -0.08 25.5733 -0.08 25.3733 0.426667L23.96 3.96L20.4267 5.29333C20.1733 5.38667 20 5.62667 20 5.90667ZM24.7067 5.10667C24.88 5.04 25.0133 4.90667 25.0933 4.73333L26 2.46667L26.9067 4.73333C26.9733 4.90667 27.1067 5.04 27.28 5.10667L29.5467 6.01333L27.28 6.92C27.1067 6.98667 26.9733 7.12 26.9067 7.29333L26 9.56L25.0933 7.29333C25.0267 7.13333 24.8933 7 24.7333 6.92L22.4533 5.96L24.7067 5.10667ZM19.3467 12.6533L18.64 9.84C18.56 9.54667 18.2933 9.33333 18 9.33333C17.7067 9.33333 17.4267 9.54667 17.36 9.84L16.6533 12.64L13.8533 13.28C13.56 13.3467 13.3467 13.6133 13.3333 13.92C13.3333 14.2267 13.5333 14.4933 13.8267 14.5733L16.6533 15.3333L17.36 18.1467C17.44 18.44 17.7067 18.6533 18 18.6533C18.2933 18.6533 18.5733 18.44 18.64 18.1467L19.3467 15.3333L22.16 14.6267C22.4533 14.5467 22.6667 14.28 22.6667 13.9867C22.6667 13.6933 22.4533 13.4133 22.16 13.3467L19.3467 12.64V12.6533ZM18.64 14.16C18.4 14.2133 18.2133 14.4 18.16 14.64L18 15.2533L17.84 14.64C17.7867 14.4 17.6 14.2267 17.3733 14.16L16.7467 13.9867L17.2933 13.8667C17.5333 13.8133 17.8 13.56 17.8533 13.3067L17.9867 12.7467L18.1467 13.36C18.2 13.6 18.3867 13.7867 18.6267 13.84L19.24 14L18.6267 14.16H18.64ZM31.3333 10.6667C30.96 10.6667 30.6667 10.96 30.6667 11.3333V26C30.6667 26.12 30.6667 26.2533 30.6533 26.3733L26.7867 22.5067C25.2533 20.9733 22.76 20.9733 21.2267 22.5067L20.4533 23.28C19.4667 24.2667 17.8667 24.2667 16.88 23.28L9.44 15.84C7.90667 14.3067 5.41333 14.3067 3.88 15.84L1.32 18.4V6C1.32 3.42667 3.41333 1.33333 5.98667 1.33333H20.6667C21.04 1.33333 21.3333 1.04 21.3333 0.666667C21.3333 0.293333 21.04 0 20.6667 0H6C2.69333 0 0 2.69333 0 6V26C0 29.3067 2.69333 32 6 32H26C29.3067 32 32 29.3067 32 26V11.3333C32 10.96 31.7067 10.6667 31.3333 10.6667ZM26 30.6667H6C3.42667 30.6667 1.33333 28.5733 1.33333 26V20.28L4.82667 16.7867C5.84 15.7733 7.49333 15.7733 8.49333 16.7867L15.9333 24.2267C17.44 25.7333 19.88 25.7333 21.3867 24.2267L22.16 23.4533C23.1733 22.44 24.8267 22.44 25.8267 23.4533L30.2667 27.8933C29.5467 29.5333 27.9067 30.68 26 30.68V30.6667ZM9.33333 6.66667C10.0667 6.66667 10.6667 7.26667 10.6667 8C10.6667 8.73333 10.0667 9.33333 9.33333 9.33333C8.6 9.33333 8 8.73333 8 8C8 7.26667 8.6 6.66667 9.33333 6.66667Z" fill="white"/>
</g>
<defs>
<clipPath id="clip0_4291_611">
<rect width="32" height="32" fill="white"/>
</clipPath>
</defs>
</svg>
