<svg width="53" height="52" viewBox="0 0 53 52" fill="none" xmlns="http://www.w3.org/2000/svg">
<path fill-rule="evenodd" clip-rule="evenodd" d="M21.6691 1H4.38978C3.4991 1 2.64426 1.35435 2.01535 1.98478C1.38535 2.61413 1.03125 3.46957 1.03125 4.36087C1.03125 13.4652 1.03125 38.5348 1.03125 47.6391C1.03125 48.5304 1.38535 49.3859 2.01535 50.0152C2.64426 50.6457 3.4991 51 4.38978 51C10.2368 51 21.6691 51 21.6691 51V1Z" stroke="#BD9675" stroke-width="2" stroke-miterlimit="2" stroke-linecap="round" stroke-linejoin="round"/>
<path fill-rule="evenodd" clip-rule="evenodd" d="M50.9965 48.0608C50.9965 46.6826 49.8799 45.5652 48.5026 45.5652C41.4162 45.5652 21.6691 45.5652 21.6691 45.5652V51H50.9965V48.0608Z" stroke="#BD9675" stroke-width="2" stroke-miterlimit="2" stroke-linecap="round" stroke-linejoin="round"/>
<path fill-rule="evenodd" clip-rule="evenodd" d="M50.9965 3.49565C50.9965 2.11739 49.8799 1 48.5026 1C41.4162 1 21.6691 1 21.6691 1V11.8696H48.5026C49.8799 11.8696 50.9965 10.7522 50.9965 9.37391C50.9965 7.61087 50.9965 5.2587 50.9965 3.49565Z" stroke="#BD9675" stroke-width="2" stroke-miterlimit="2" stroke-linecap="round" stroke-linejoin="round"/>
<path d="M43.3932 11.8695H32.2075V16.2173H43.3932V11.8695Z" stroke="#BD9675" stroke-width="2" stroke-miterlimit="2" stroke-linecap="round" stroke-linejoin="round"/>
<path d="M45.5654 5.34778V7.52169" stroke="#BD9675" stroke-width="2" stroke-miterlimit="2" stroke-linecap="round" stroke-linejoin="round"/>
<path fill-rule="evenodd" clip-rule="evenodd" d="M46.5311 24.9131H29.0682V39.6674C29.0682 42.925 31.7077 45.5653 34.962 45.5653C36.7922 45.5653 38.8082 45.5653 40.6374 45.5653C43.8927 45.5653 46.5311 42.925 46.5311 39.6674C46.5311 33.5631 46.5311 24.9131 46.5311 24.9131Z" stroke="#BD9675" stroke-width="2" stroke-miterlimit="2" stroke-linecap="round" stroke-linejoin="round"/>
<path d="M46.5312 26.9783C46.5312 26.9783 46.7333 26.8978 47.045 26.7728C47.9813 26.3978 49.0458 26.5359 49.8561 27.1381C50.6664 27.7392 51.1074 28.7185 51.0205 29.725C50.825 31.9707 49.8561 34.2337 46.5312 34.1272" stroke="#BD9675" stroke-width="2" stroke-miterlimit="2" stroke-linecap="round" stroke-linejoin="round"/>
<path d="M11.8932 37.4131C13.6929 37.4131 15.1518 35.9532 15.1518 34.1522C15.1518 32.3513 13.6929 30.8914 11.8932 30.8914C10.0936 30.8914 8.63464 32.3513 8.63464 34.1522C8.63464 35.9532 10.0936 37.4131 11.8932 37.4131Z" stroke="#BD9675" stroke-width="2" stroke-miterlimit="2" stroke-linecap="round" stroke-linejoin="round"/>
<path d="M11.8932 40.1305V37.9565" stroke="#BD9675" stroke-width="2" stroke-miterlimit="2" stroke-linecap="round" stroke-linejoin="round"/>
<path d="M11.8932 30.3478V20.5652" stroke="#BD9675" stroke-width="2" stroke-miterlimit="2" stroke-linecap="round" stroke-linejoin="round"/>
</svg>
