<svg width="52" height="52" viewBox="0 0 52 52" fill="none" xmlns="http://www.w3.org/2000/svg">
<path d="M2.72859 49.6136L2.72745 49.6136C2.49789 49.6095 2.31085 49.4179 2.31526 49.1813L2.31527 49.181C2.31942 48.9504 2.50278 48.7701 2.72201 48.7636L2.74325 48.7639C2.77162 48.7644 2.80009 48.7649 2.82865 48.7654C3.8006 48.7825 4.87569 48.8014 5.73576 48.1942C6.64541 47.5519 7.1901 46.3195 7.421 44.1833C7.65642 42.0079 8.54595 40.7709 9.51915 40.0855C10.5105 39.3874 11.6389 39.2266 12.3826 39.301C12.6097 39.3243 12.7814 39.5299 12.7581 39.7677C12.7339 40.0042 12.5228 40.1699 12.3049 40.1477L12.3049 40.1475L12.2914 40.1465C12.0925 40.1317 11.2022 40.0904 10.2916 40.6081C9.34868 41.1443 8.47736 42.2257 8.25542 44.2756L8.25541 44.2757C7.98265 46.7997 7.24941 48.0915 6.3778 48.7736C5.49607 49.4636 4.36685 49.6172 3.08748 49.6172C2.96743 49.6172 2.84821 49.616 2.72859 49.6136Z" fill="#BC715C" stroke="#BD9675"/>
<path d="M42.2259 17.9049V15.5271H42.9393C45.2282 15.5271 47.1182 16.421 48.443 17.9691C49.7736 19.524 50.5624 21.774 50.5624 24.5201V33.6062C50.5624 37.9458 46.8175 41.8586 42.2259 42.5001V40.0931C45.4496 39.4899 48.1923 36.7241 48.1923 33.6062V24.5201C48.1923 23.7792 48.1064 22.1614 47.422 20.7113C47.0767 19.9797 46.571 19.2734 45.8314 18.7505C45.0872 18.2242 44.1358 17.9049 42.9393 17.9049H42.2259Z" stroke="#BD9675"/>
<path d="M13.0828 38.4684C13.1526 38.528 13.2234 38.5922 13.2925 38.6617L13.0828 38.4684ZM13.0828 38.4684V11.5303H41.2259V42.9516C41.2259 47.1545 37.8276 50.5595 33.6378 50.5595H20.6707C17.5313 50.5595 14.8413 48.6442 13.6879 45.9134C15.012 43.3334 15.0568 40.4311 13.2931 38.6623L13.0828 38.4684Z" stroke="#BD9675"/>
<path d="M26.4802 6.62138C26.2394 6.62138 26.0427 6.42593 26.0427 6.18171V0.939668C26.0427 0.695789 26.2397 0.5 26.4802 0.5C26.7206 0.5 26.9176 0.695924 26.9176 0.939668V6.18171C26.9176 6.42599 26.7209 6.62138 26.4802 6.62138Z" fill="#F4F4F4" stroke="#BD9675"/>
<mask id="path-5-inside-1_4308_1501" fill="white">
<path d="M26.4802 6.18171V0.939668C26.4802 0.592809 26.6697 0.292986 26.949 0.130331C26.8107 0.0495216 26.652 0 26.4802 0C25.9622 0 25.5427 0.421037 25.5427 0.939668V6.18171C25.5427 6.70117 25.9624 7.12138 26.4802 7.12138C26.652 7.12138 26.8107 7.07248 26.949 6.99167C26.6695 6.82901 26.4802 6.52919 26.4802 6.18171Z"/>
</mask>
<path d="M26.4802 6.18171V0.939668C26.4802 0.592809 26.6697 0.292986 26.949 0.130331C26.8107 0.0495216 26.652 0 26.4802 0C25.9622 0 25.5427 0.421037 25.5427 0.939668V6.18171C25.5427 6.70117 25.9624 7.12138 26.4802 7.12138C26.652 7.12138 26.8107 7.07248 26.949 6.99167C26.6695 6.82901 26.4802 6.52919 26.4802 6.18171Z" fill="#F9F9F9"/>
<path d="M26.949 0.130331L27.4523 0.994452L28.9335 0.131747L27.4535 -0.733071L26.949 0.130331ZM26.949 6.99167L27.4535 7.85507L28.9341 6.98993L27.452 6.12739L26.949 6.99167ZM27.4802 6.18171V0.939668H25.4802V6.18171H27.4802ZM27.4802 0.939668C27.4802 0.951284 27.4764 0.965247 27.4698 0.976362C27.4642 0.985818 27.4579 0.991197 27.4523 0.994452L26.4457 -0.73379C25.8777 -0.402976 25.4802 0.215639 25.4802 0.939668H27.4802ZM27.4535 -0.733071C27.1801 -0.892824 26.849 -1 26.4802 -1V1C26.4691 1 26.4591 0.998303 26.4517 0.996167C26.4447 0.994162 26.4424 0.992493 26.4445 0.993733L27.4535 -0.733071ZM26.4802 -1C25.4072 -1 24.5427 -0.128592 24.5427 0.939668H26.5427C26.5427 0.970667 26.5171 1 26.4802 1V-1ZM24.5427 0.939668V6.18171H26.5427V0.939668H24.5427ZM24.5427 6.18171C24.5427 7.25152 25.4081 8.12138 26.4802 8.12138V6.12138C26.5166 6.12138 26.5427 6.15082 26.5427 6.18171H24.5427ZM26.4802 8.12138C26.8466 8.12138 27.1778 8.01616 27.4535 7.85507L26.4445 6.12827C26.4434 6.12891 26.4463 6.12704 26.4534 6.12502C26.461 6.12288 26.4704 6.12138 26.4802 6.12138V8.12138ZM27.452 6.12739C27.4577 6.13069 27.4642 6.13624 27.4699 6.14589C27.4766 6.15719 27.4802 6.17092 27.4802 6.18171H25.4802C25.4802 6.90566 25.8769 7.52474 26.446 7.85595L27.452 6.12739Z" fill="#BD9675" mask="url(#path-5-inside-1_4308_1501)"/>
<path d="M32.0863 6.62823V6.62843C32.0864 6.87219 31.8895 7.06811 31.6489 7.06811C31.4085 7.06811 31.2114 6.87219 31.2114 6.62844V2.50095C31.2114 2.25707 31.4084 2.06128 31.6489 2.06128C31.8894 2.06128 32.0863 2.25707 32.0863 2.50095V6.62823Z" fill="#F4F4F4" stroke="#BD9675"/>
<mask id="path-8-inside-2_4308_1501" fill="white">
<path d="M31.6489 6.62823V2.50095C31.6489 2.15409 31.8386 1.85426 32.1177 1.69161C31.9794 1.6108 31.8205 1.56128 31.6489 1.56128C31.1311 1.56128 30.7114 1.98211 30.7114 2.50095V6.62823C30.7114 7.14707 31.1311 7.5679 31.6489 7.5679C31.8205 7.5679 31.9794 7.51838 32.1177 7.43757C31.8386 7.27492 31.6489 6.9753 31.6489 6.62823Z"/>
</mask>
<path d="M31.6489 6.62823V2.50095C31.6489 2.15409 31.8386 1.85426 32.1177 1.69161C31.9794 1.6108 31.8205 1.56128 31.6489 1.56128C31.1311 1.56128 30.7114 1.98211 30.7114 2.50095V6.62823C30.7114 7.14707 31.1311 7.5679 31.6489 7.5679C31.8205 7.5679 31.9794 7.51838 32.1177 7.43757C31.8386 7.27492 31.6489 6.9753 31.6489 6.62823Z" fill="#F9F9F9"/>
<path d="M32.1177 1.69161L32.6213 2.55557L34.1017 1.69271L32.6222 0.828208L32.1177 1.69161ZM32.1177 7.43757L32.6222 8.30097L34.1017 7.43647L32.6213 6.57361L32.1177 7.43757ZM32.6489 6.62823V2.50095H30.6489V6.62823H32.6489ZM32.6489 2.50095C32.6489 2.51277 32.645 2.52676 32.6385 2.53776C32.633 2.54707 32.6268 2.55235 32.6213 2.55557L31.6141 0.827651C31.0469 1.15827 30.6489 1.77659 30.6489 2.50095H32.6489ZM32.6222 0.828208C32.3487 0.668392 32.0174 0.561279 31.6489 0.561279V2.56128C31.6377 2.56128 31.6277 2.55956 31.6204 2.55747C31.6135 2.5555 31.6112 2.55387 31.6132 2.55501L32.6222 0.828208ZM31.6489 0.561279C30.5764 0.561279 29.7114 1.43219 29.7114 2.50095H31.7114C31.7114 2.53203 31.6857 2.56128 31.6489 2.56128V0.561279ZM29.7114 2.50095V6.62823H31.7114V2.50095H29.7114ZM29.7114 6.62823C29.7114 7.69699 30.5764 8.5679 31.6489 8.5679V6.5679C31.6857 6.5679 31.7114 6.59715 31.7114 6.62823H29.7114ZM31.6489 8.5679C32.0174 8.5679 32.3487 8.46079 32.6222 8.30097L31.6132 6.57417C31.6112 6.57531 31.6135 6.57368 31.6204 6.57171C31.6277 6.56962 31.6377 6.5679 31.6489 6.5679V8.5679ZM32.6213 6.57361C32.6266 6.57675 32.6328 6.582 32.6384 6.59143C32.6451 6.60256 32.6489 6.61659 32.6489 6.62823H30.6489C30.6489 7.35292 31.047 7.97098 31.6141 8.30153L32.6213 6.57361Z" fill="#BD9675" mask="url(#path-8-inside-2_4308_1501)"/>
<path d="M21.2021 7.48647C20.9616 7.48647 20.7646 7.29068 20.7646 7.0468V4.42526C20.7646 4.18098 20.9614 3.9856 21.2021 3.9856C21.4428 3.9856 21.6396 4.18098 21.6396 4.42526V7.0468C21.6396 7.29068 21.4426 7.48647 21.2021 7.48647Z" fill="#F4F4F4" stroke="#BD9675"/>
<mask id="path-11-inside-3_4308_1501" fill="white">
<path d="M21.2021 7.04677V4.42523C21.2021 4.07837 21.3919 3.77854 21.6709 3.61568C21.5326 3.53487 21.3737 3.48535 21.2021 3.48535C20.6843 3.48535 20.2646 3.90556 20.2646 4.42502V7.04656C20.2646 7.5654 20.6843 7.98623 21.2021 7.98623C21.3737 7.98623 21.5326 7.93608 21.6709 7.85527C21.3919 7.69283 21.2021 7.39363 21.2021 7.04677Z"/>
</mask>
<path d="M21.2021 7.04677V4.42523C21.2021 4.07837 21.3919 3.77854 21.6709 3.61568C21.5326 3.53487 21.3737 3.48535 21.2021 3.48535C20.6843 3.48535 20.2646 3.90556 20.2646 4.42502V7.04656C20.2646 7.5654 20.6843 7.98623 21.2021 7.98623C21.3737 7.98623 21.5326 7.93608 21.6709 7.85527C21.3919 7.69283 21.2021 7.39363 21.2021 7.04677Z" fill="#F9F9F9"/>
<path d="M21.6709 3.61568L22.175 4.47936L23.654 3.61623L22.1755 2.75228L21.6709 3.61568ZM21.6709 7.85527L22.1755 8.71868L23.6558 7.85363L22.174 6.99104L21.6709 7.85527ZM22.2021 7.04677V4.42523H20.2021V7.04677H22.2021ZM22.2021 4.42523C22.2021 4.43707 22.1982 4.45102 22.1918 4.46194C22.1863 4.47118 22.1802 4.47629 22.175 4.47936L21.1669 2.752C20.6002 3.08273 20.2021 3.70078 20.2021 4.42523H22.2021ZM22.1755 2.75228C21.902 2.59247 21.5706 2.48535 21.2021 2.48535V4.48535C21.1909 4.48535 21.1809 4.48363 21.1736 4.48154C21.1667 4.47958 21.1645 4.47794 21.1664 4.47908L22.1755 2.75228ZM21.2021 2.48535C20.1301 2.48535 19.2646 3.35521 19.2646 4.42502H21.2646C21.2646 4.45591 21.2385 4.48535 21.2021 4.48535V2.48535ZM19.2646 4.42502V7.04656H21.2646V4.42502H19.2646ZM19.2646 7.04656C19.2646 8.11531 20.1296 8.98623 21.2021 8.98623V6.98623C21.2389 6.98623 21.2646 7.01548 21.2646 7.04656H19.2646ZM21.2021 8.98623C21.573 8.98623 21.9043 8.87715 22.1755 8.71868L21.1664 6.99187C21.1634 6.99361 21.1651 6.99217 21.1718 6.99023C21.1791 6.98815 21.1897 6.98623 21.2021 6.98623V8.98623ZM22.174 6.99104C22.1793 6.99413 22.1857 6.99943 22.1914 7.00912C22.1982 7.02052 22.2021 7.03486 22.2021 7.04677H20.2021C20.2021 7.77177 20.6008 8.3894 21.1679 8.71951L22.174 6.99104Z" fill="#BD9675" mask="url(#path-11-inside-3_4308_1501)"/>
<path d="M41.2874 42.9779L41.2885 42.9611L41.2885 42.9444L41.2887 39.665V39.6649C41.2887 39.4424 41.4543 39.2558 41.6728 39.2287C43.1843 39.0414 44.5709 38.3137 45.5817 37.3063C46.5905 36.3009 47.2551 34.9846 47.2551 33.6061V24.52C47.2551 23.7182 47.1619 22.3346 46.5903 21.134C46.3013 20.527 45.8821 19.9499 45.2755 19.525C44.6646 19.0971 43.8933 18.8447 42.9396 18.8447H41.7262C41.4857 18.8447 41.2887 18.6488 41.2887 18.405V15.0272C41.2887 14.7833 41.4857 14.5875 41.7262 14.5875H42.9396C45.5115 14.5875 47.6365 15.5781 49.1248 17.2918C50.6184 19.0115 51.5003 21.4954 51.5003 24.5202V33.6063C51.5003 38.5868 47.1533 43.0562 41.7584 43.497C41.7424 43.4982 41.7307 43.4986 41.7216 43.4986C41.612 43.4986 41.5054 43.4571 41.4238 43.3811C41.3344 43.2976 41.2836 43.18 41.2839 43.0569C41.284 43.0559 41.2841 43.0529 41.2843 43.047L41.2854 43.0193L41.2867 42.991C41.2871 42.9817 41.2874 42.9778 41.2874 42.9779ZM42.5502 39.9638L42.164 40.0541V40.4506V41.9802V42.5889L42.7611 42.4707C47.0943 41.6133 50.6256 37.8057 50.6256 33.6063V24.5202C50.6256 21.8354 49.8968 19.5734 48.5525 17.9734C47.2009 16.3646 45.2609 15.4671 42.94 15.4671H42.664H42.164V15.9671V17.4654V17.9654H42.664H42.94C44.8667 17.9654 46.1357 18.7896 46.9435 19.9927C47.7684 21.221 48.1305 22.8764 48.1305 24.5202V33.6063C48.1305 36.4719 45.7239 39.2218 42.5502 39.9638Z" stroke="#BD9675"/>
<path d="M26.4802 6.62138C26.2396 6.62138 26.0427 6.42572 26.0427 6.18171V0.939668C26.0427 0.695653 26.2396 0.5 26.4802 0.5C26.7207 0.5 26.9176 0.695653 26.9176 0.939668V6.18171C26.9176 6.42572 26.7207 6.62138 26.4802 6.62138Z" fill="white" stroke="#BD9675"/>
<path d="M32.0863 6.62823V6.62843C32.0864 6.87246 31.8897 7.06811 31.6489 7.06811C31.4083 7.06811 31.2114 6.87246 31.2114 6.62844V2.50095C31.2114 2.25693 31.4083 2.06128 31.6489 2.06128C31.8894 2.06128 32.0863 2.25693 32.0863 2.50095V6.62823Z" fill="white" stroke="#BD9675"/>
<path d="M21.2021 7.48647C20.9615 7.48647 20.7646 7.29082 20.7646 7.0468V4.42526C20.7646 4.18125 20.9615 3.9856 21.2021 3.9856C21.4427 3.9856 21.6396 4.18125 21.6396 4.42526V7.0468C21.6396 7.29082 21.4427 7.48647 21.2021 7.48647Z" fill="white" stroke="#BD9675"/>
<path d="M21.1355 30.5071L21.1206 30.4889C20.6575 29.9239 20.4027 29.2129 20.4027 28.4827C20.4027 26.7394 21.8171 25.3195 23.5596 25.3195C25.2467 25.3195 26.6297 26.6449 26.709 28.3326M21.1355 30.5071L26.2095 28.3561M21.1355 30.5071L21.1521 30.5239L26.8006 36.2265L27.1558 36.5851L27.5111 36.2265L33.149 30.5349L33.1647 30.519L33.179 30.5018C33.6484 29.9346 33.9069 29.2187 33.9069 28.4827C33.9069 26.7392 32.4925 25.3195 30.7502 25.3195C29.0613 25.3195 27.6784 26.6456 27.6004 28.3349C27.594 28.4736 27.523 28.6006 27.4094 28.6783M21.1355 30.5071L27.4094 28.6783M26.709 28.3326L26.2095 28.3561M26.709 28.3326C26.7089 28.3325 26.7089 28.3325 26.7089 28.3324L26.2095 28.3561M26.709 28.3326C26.7152 28.4623 26.7814 28.5862 26.8905 28.6661M26.2095 28.3561C26.2229 28.6393 26.3662 28.9018 26.595 29.0695M26.8905 28.6661C26.8904 28.6661 26.8904 28.666 26.8904 28.666L26.595 29.0695M26.8905 28.6661C26.9334 28.6975 26.9825 28.7209 27.0362 28.7355L27.0413 28.7369L27.0413 28.7369C27.1669 28.7725 27.3031 28.7508 27.4094 28.6783M26.8905 28.6661L26.595 29.0695M26.595 29.0695L27.4094 28.6783M26.846 37.519L26.8456 37.5185L20.5035 31.1169C20.4927 31.1058 20.4844 31.0967 20.4778 31.0888C19.865 30.3587 19.5276 29.4331 19.5276 28.4827C19.5276 26.253 21.3381 24.4399 23.5596 24.4399C24.8605 24.4399 26.0197 25.0557 26.7573 26.0199L27.1544 26.539L27.5515 26.0199C28.289 25.056 29.4487 24.4399 30.7502 24.4399C32.9717 24.4399 34.782 26.253 34.782 28.4827C34.782 29.4163 34.4569 30.3255 33.865 31.048L33.8565 31.0583L33.8487 31.069C33.836 31.0863 33.8238 31.1003 33.8124 31.1116L33.8124 31.1116L33.8089 31.1151L27.4658 37.5184L27.4652 37.519C27.3832 37.6021 27.2722 37.6483 27.1558 37.6483C27.0395 37.6483 26.928 37.6019 26.846 37.519Z" fill="white" stroke="#BD9675"/>
<path d="M3.4108 40.2907L3.41068 40.2908C1.80689 41.8974 0.848384 43.8248 0.578859 45.6232C0.309264 47.422 0.73004 49.0537 1.8269 50.154L3.4108 40.2907ZM3.4108 40.2907C5.0145 38.6831 6.93736 37.7225 8.73056 37.4524C10.524 37.1823 12.1505 37.6038 13.2476 38.7037L13.2476 38.7037M3.4108 40.2907L13.2476 38.7037M13.2476 38.7037C14.32 39.7786 14.7519 41.348 14.5257 43.0867C14.2995 44.8261 13.4143 46.705 11.8962 48.3199M13.2476 38.7037L11.8962 48.3199M12.6297 39.3263L12.63 39.3265C13.6138 40.313 13.8773 41.7804 13.6094 43.2735C13.3405 44.773 12.5296 46.3662 11.2597 47.7168M12.6297 39.3263L10.9347 48.7024M12.6297 39.3263C11.6045 38.2996 10.0924 38.0396 8.55823 38.3478M12.6297 39.3263L8.55823 38.3478M11.2597 47.7168L10.8955 47.3743L11.2598 47.7168C11.2598 47.7168 11.2597 47.7168 11.2597 47.7168ZM11.2597 47.7168C11.0935 47.8936 11.1018 48.1724 11.278 48.3389M11.278 48.3389C11.2779 48.3388 11.2778 48.3387 11.2777 48.3386L10.9347 48.7024M11.278 48.3389C11.4541 48.5045 11.73 48.4963 11.8962 48.3199M11.278 48.3389C11.2781 48.3389 11.2781 48.339 11.2781 48.339L10.9347 48.7024M10.9347 48.7024L11.8962 48.3199M2.44487 49.5317L2.44472 49.5316C1.43093 48.5145 1.18776 46.9853 1.49584 45.446C1.80561 43.8983 2.6816 42.2628 4.02854 40.9134L2.44487 49.5317ZM2.44487 49.5317C3.70134 50.7912 5.74376 50.9194 7.79765 50.1114M2.44487 49.5317L7.79765 50.1114M8.55823 38.3478C7.01962 38.6569 5.39513 39.5438 4.02862 40.9133L8.55823 38.3478ZM7.79765 50.1114C8.0211 50.0237 8.2758 50.134 8.36448 50.3597L7.79765 50.1114ZM5.3094 51.5001C3.91494 51.5001 2.70572 51.0346 1.82705 50.1542L8.36463 50.3601C8.45322 50.5874 8.34111 50.8421 8.11692 50.9305C7.13798 51.3151 6.18657 51.5001 5.3094 51.5001Z" fill="white" stroke="#BD9675"/>
<path d="M20.6709 51.4994C17.1316 51.4994 14.0157 49.361 12.7298 46.0456L12.7297 46.0454C12.6828 45.9242 12.6916 45.7883 12.7534 45.6747C14.0232 43.3408 14.1047 40.8048 12.6297 39.3261C12.5212 39.2171 12.4087 39.1269 12.3123 39.0518C12.2073 38.9688 12.1453 38.8412 12.1453 38.7058V20.2833C12.1453 20.0395 12.3422 19.8437 12.5827 19.8437C12.8232 19.8437 13.0202 20.0395 13.0202 20.2833V38.2713V38.4859L13.1758 38.6338C13.203 38.6597 13.2264 38.6821 13.2483 38.704C14.8124 40.2724 15.0665 42.9576 13.7222 45.7068L13.6187 45.9184L13.716 46.133C14.958 48.8715 17.6437 50.6198 20.6707 50.6198H33.6377C37.8577 50.6198 41.2882 47.179 41.2882 42.9518V11.9701V11.4701H40.7882H13.5204H13.0204V11.9701V15.9482C13.0204 16.1921 12.8234 16.3879 12.5829 16.3879C12.3425 16.3879 12.1455 16.192 12.1455 15.9482V11.0302C12.1455 10.7862 12.3424 10.5906 12.5829 10.5906H41.7261C41.9666 10.5906 42.1635 10.7862 42.1635 11.0302V42.9518C42.1635 47.6654 38.3373 51.4994 33.6379 51.4994H20.6709Z" fill="white" stroke="#BD9675"/>
<path d="M1.77902 49.2441L2.27878 49.2288C2.27129 48.9846 2.46237 48.7828 2.70273 48.7754L2.70328 48.7754L2.87723 48.7698C2.87736 48.7698 2.87749 48.7698 2.87762 48.7698C2.90855 48.7689 2.93949 48.768 2.97044 48.7671C4.01438 48.7367 5.06524 48.706 5.87277 48.08C6.722 47.4217 7.19027 46.2131 7.41779 44.1673L7.41779 44.1673C7.66081 41.9819 8.56661 40.7385 9.55767 40.0499C10.5676 39.3482 11.715 39.189 12.4673 39.2671L12.4681 39.2672C12.7075 39.2916 12.8837 39.5065 12.8589 39.7492L12.8589 39.7492C12.8342 39.9914 12.6186 40.1655 12.3827 40.1423L12.3783 40.1419C12.1715 40.1235 11.2733 40.0806 10.3535 40.5958C9.40038 41.1297 8.51582 42.2108 8.28726 44.2648L8.28725 44.2649C7.98055 47.0244 7.13654 48.296 6.2097 48.9211C5.25234 49.5669 4.09364 49.6135 2.90285 49.6492L2.73062 49.6541L2.72149 49.6544L2.71915 49.6545L2.71564 49.6546C2.48186 49.6546 2.28625 49.4674 2.27877 49.2285L1.77902 49.2441ZM1.77902 49.2441C1.79493 49.7526 2.21147 50.1546 2.71564 50.1546C2.72536 50.1546 2.73549 50.1545 2.745 50.1539L2.68732 48.2756C2.16971 48.2916 1.7631 48.7253 1.77902 49.2441Z" fill="white" stroke="#BD9675"/>
</svg>
