<svg width="47" height="52" viewBox="0 0 47 52" fill="none" xmlns="http://www.w3.org/2000/svg">
<mask id="path-1-inside-1_4308_1683" fill="white">
<path d="M40.5182 21.235H36.2304V23.7847H40.5182C41.254 23.7847 41.8553 24.3695 41.882 25.0988L40.6139 38.2208C40.6101 38.2615 40.6082 38.3024 40.6082 38.3435C40.6082 39.0968 39.9956 39.7092 39.2431 39.7092H34.1418C33.6307 40.6164 33.0368 41.4696 32.3677 42.259H39.2433C41.3798 42.259 43.1217 40.5386 43.1577 38.4105L44.4271 25.2731C44.4316 25.2325 44.4334 25.1916 44.4334 25.1504C44.4332 22.9914 42.6771 21.235 40.5182 21.235Z"/>
</mask>
<path d="M36.2304 21.235V18.235H33.2304V21.235H36.2304ZM36.2304 23.7847H33.2304V26.7847H36.2304V23.7847ZM41.882 25.0988L44.8681 25.3874L44.8874 25.1884L44.88 24.9887L41.882 25.0988ZM40.6139 38.2208L37.6278 37.9322L37.6269 37.9422L40.6139 38.2208ZM34.1418 39.7092V36.7092H32.3885L31.528 38.2368L34.1418 39.7092ZM32.3677 42.259L30.0793 40.319L25.8914 45.259H32.3677V42.259ZM43.1577 38.4105L40.1716 38.122L40.1602 38.2406L40.1582 38.3597L43.1577 38.4105ZM44.4271 25.2731L41.4447 24.9486L41.4428 24.9666L41.441 24.9846L44.4271 25.2731ZM44.4334 25.1504H47.4334V25.1502L44.4334 25.1504ZM40.5182 18.235H36.2304V24.235H40.5182V18.235ZM33.2304 21.235V23.7847H39.2304V21.235H33.2304ZM36.2304 26.7847H40.5182V20.7847H36.2304V26.7847ZM40.5182 26.7847C39.6332 26.7847 38.9163 26.0858 38.8841 25.2089L44.88 24.9887C44.7943 22.6533 42.8748 20.7847 40.5182 20.7847V26.7847ZM38.8959 24.8102L37.6278 37.9322L43.6 38.5094L44.8681 25.3874L38.8959 24.8102ZM37.6269 37.9422C37.6144 38.076 37.6082 38.2099 37.6082 38.3435H43.6082C43.6082 38.3949 43.6058 38.447 43.601 38.4994L37.6269 37.9422ZM37.6082 38.3435C37.6082 37.4405 38.3381 36.7092 39.2431 36.7092V42.7092C41.653 42.7092 43.6082 40.753 43.6082 38.3435H37.6082ZM39.2431 36.7092H34.1418V42.7092H39.2431V36.7092ZM31.528 38.2368C31.11 38.9787 30.625 39.6753 30.0793 40.319L34.656 44.1989C35.4487 43.2639 36.1514 42.2541 36.7556 41.1817L31.528 38.2368ZM32.3677 45.259H39.2433V39.259H32.3677V45.259ZM39.2433 45.259C43.0207 45.259 46.0936 42.2225 46.1573 38.4614L40.1582 38.3597C40.1498 38.8548 39.739 39.259 39.2433 39.259V45.259ZM46.1438 38.6991L47.4132 25.5617L41.441 24.9846L40.1716 38.122L46.1438 38.6991ZM47.4095 25.5977C47.4273 25.4339 47.4334 25.2834 47.4334 25.1504H41.4334C41.4334 25.0997 41.4358 25.031 41.4447 24.9486L47.4095 25.5977ZM47.4334 25.1502C47.4331 21.3348 44.3343 18.235 40.5182 18.235V24.235C41.0198 24.235 41.4334 24.6479 41.4334 25.1507L47.4334 25.1502Z" fill="#BD9675" mask="url(#path-1-inside-1_4308_1683)"/>
<path d="M20.4252 31.8858C20.7877 28.5506 22.3482 27.0785 23.7656 26.4066C25.1987 25.7273 26.5594 25.834 26.5967 25.837C26.5973 25.837 26.5976 25.837 26.5974 25.837L26.5981 25.8371C26.8485 25.8623 27.0315 26.0857 27.0066 26.3367C26.9807 26.5915 26.7531 26.771 26.5156 26.7454L26.5156 26.7452L26.5031 26.7442C26.2519 26.7235 25.1122 26.6658 23.9481 27.3142C22.7503 27.9814 21.6193 29.3438 21.3323 31.9843L21.8293 32.0384L21.3323 31.9843C20.9951 35.0863 20.1198 36.6976 19.0384 37.5556C17.9485 38.4205 16.5422 38.6097 14.9145 38.6097C14.7577 38.6097 14.5997 38.6078 14.4399 38.6047L14.4396 38.6047C14.1871 38.6 13.9867 38.3916 13.9913 38.1406C13.9961 37.8951 14.1931 37.6988 14.4353 37.6924L14.4356 37.6924L14.4561 37.6928C14.4854 37.6933 14.5149 37.6938 14.5443 37.6944C15.8345 37.7177 17.197 37.7424 18.2821 36.9838C19.4179 36.1898 20.1252 34.6472 20.4252 31.8858ZM20.4252 31.8858L19.9281 31.8318M20.4252 31.8858L19.9281 31.8318M19.9281 31.8318C19.3363 37.2796 17.189 37.2414 14.4673 37.1929L14.465 37.1929L26.462 27.2425C26.9823 27.2986 27.4512 26.9107 27.5041 26.3865C27.5564 25.8612 27.1736 25.3925 26.6482 25.3396C26.5883 25.3335 20.69 24.8222 19.9281 31.8318ZM14.4475 37.6922C14.4486 37.6922 14.4492 37.6922 14.4492 37.6922C14.4492 37.6922 14.4485 37.6922 14.447 37.6922C14.4472 37.6922 14.4473 37.6922 14.4475 37.6922Z" fill="white" stroke="#BD9675"/>
<path d="M19.9281 16.7365C19.6763 16.7365 19.472 16.5323 19.472 16.2804V14.8415C19.472 13.4722 18.3586 12.3589 16.9888 12.3589H13.3756C11.5034 12.3589 9.97998 10.8355 9.97998 8.96351V8.11873C9.97998 6.24698 11.5034 4.7233 13.3756 4.7233H25.6739C27.0438 4.7233 28.1572 3.61003 28.1572 2.24048V0.95634C28.1572 0.704507 28.3616 0.500244 28.6133 0.500244C28.8651 0.500244 29.0694 0.704433 29.0694 0.95634V2.24048C29.0694 4.11197 27.546 5.63549 25.6737 5.63549H13.3754C12.0055 5.63549 10.8922 6.74879 10.8922 8.11852V8.9633C10.8922 10.333 12.0055 11.4463 13.3754 11.4463H16.9885C18.8608 11.4463 20.3842 12.9698 20.3842 14.8413V16.2802C20.3842 16.5324 20.1799 16.7365 19.9281 16.7365Z" fill="white" stroke="#BD9675"/>
<path d="M28.4317 2.24045C28.4317 2.71122 28.2108 3.13169 27.8672 3.40354C28.052 3.05636 28.1568 2.66034 28.1568 2.24024V0.956095C28.1568 0.74276 28.3033 0.563646 28.5012 0.513799C28.4563 0.652633 28.4317 0.801165 28.4317 0.956307V2.24045Z" fill="white" stroke="#BD9675"/>
<path d="M19.4718 14.8416C19.4718 14.4217 19.3671 14.0259 19.1824 13.6789C19.5259 13.9508 19.7466 14.3711 19.7466 14.8416V16.2805C19.7466 16.4355 19.7712 16.584 19.8161 16.7228C19.6183 16.6729 19.4718 16.4937 19.4718 16.2805V14.8416Z" fill="white" stroke="#BD9675"/>
<path d="M10.2548 8.96323C10.2548 9.83957 10.5124 10.6567 10.9559 11.3429C10.3527 10.7297 9.97998 9.8891 9.97998 8.96323V8.11845C9.97998 7.1925 10.3527 6.3518 10.9561 5.73858C10.5125 6.42486 10.2548 7.24207 10.2548 8.11845V8.96323Z" fill="white" stroke="#BD9675"/>
<path d="M10.2697 45.4289L10.2694 45.4286C5.82331 42.2836 3.16919 37.1684 3.16919 31.7469V28.4656C3.16919 28.2137 3.37345 28.0095 3.62528 28.0095C3.87712 28.0095 4.08138 28.2137 4.08138 28.4656V31.7469C4.08138 36.7719 6.49222 41.5162 10.5448 44.5026L10.6771 44.6001H10.8414H29.0138H29.1781L29.3104 44.5026C33.363 41.5164 35.7738 36.7725 35.7738 31.7469V19.6814V19.1814H35.2738H4.58159H4.08159V19.6814V24.0545C4.08159 24.3064 3.87733 24.5106 3.6255 24.5106C3.37366 24.5106 3.1694 24.3064 3.1694 24.0545V18.7253C3.1694 18.4734 3.37366 18.2692 3.6255 18.2692H36.2301C36.482 18.2692 36.6862 18.4734 36.6862 18.7253V31.7469C36.6862 37.1686 34.0323 42.2842 29.5861 45.4286L29.5855 45.429C29.5093 45.4831 29.4174 45.5125 29.3226 45.5125H10.5328C10.4382 45.5125 10.3463 45.4832 10.2697 45.4289Z" fill="white" stroke="#BD9675"/>
<path d="M45.2775 46.1073L45.3925 45.5124H44.7866H2.00327H1.39737L1.51235 46.1073C2.00512 48.6566 4.25278 50.5876 6.94482 50.5876H13.3349C13.5868 50.5876 13.791 50.7918 13.791 51.0437C13.791 51.2956 13.5866 51.4998 13.3349 51.4998H6.94482C3.39185 51.4998 0.5 48.6086 0.5 45.0561C0.5 44.8042 0.704259 44.6 0.956095 44.6H45.8335C46.0854 44.6 46.2896 44.8042 46.2896 45.0561C46.2898 48.6087 43.3988 51.4998 39.8463 51.4998H17.7458C17.494 51.4998 17.2898 51.2956 17.2898 51.0437C17.2898 50.7919 17.4942 50.5876 17.7458 50.5876H39.8463C42.5378 50.5876 44.7848 48.6565 45.2775 46.1073Z" fill="white" stroke="#BD9675"/>
<path d="M19.9281 16.7365C19.6763 16.7365 19.472 16.5323 19.472 16.2804V14.8415C19.472 13.4722 18.3586 12.3587 16.9888 12.3587H13.3756C11.5034 12.3587 9.97998 10.8352 9.97998 8.96326V8.11848C9.97998 6.24673 11.5034 4.72305 13.3756 4.72305H25.6739C27.0437 4.72305 28.1572 3.60982 28.1572 2.24045V0.956095C28.1572 0.704191 28.3614 0.5 28.6133 0.5C28.8651 0.5 29.0694 0.704189 29.0694 0.956095V2.24045C29.0694 4.11194 27.546 5.63546 25.6737 5.63546H13.3754C12.0055 5.63546 10.8922 6.74875 10.8922 8.11848V8.96326C10.8922 10.333 12.0055 11.4463 13.3754 11.4463H16.9885C18.8608 11.4463 20.3842 12.9698 20.3842 14.8413V16.2802C20.3842 16.5324 20.1799 16.7365 19.9281 16.7365Z" fill="white" stroke="#BD9675"/>
<path d="M15.4472 27.1323L15.4471 27.1325C13.4869 29.0915 12.3086 31.4401 11.9717 33.6338C11.6347 35.8281 12.1406 37.8283 13.4889 39.1778C13.4889 39.1778 13.4889 39.1778 13.489 39.1779M15.4472 27.1323L25.8879 37.574C23.4565 40.0063 20.4241 41.2959 17.745 41.2959C15.9572 41.2959 14.3269 40.7222 13.1353 39.5313L13.489 39.1779M15.4472 27.1323C17.3065 25.2726 19.5665 24.0493 21.7967 23.6663C24.138 23.2642 26.1407 23.826 27.4902 25.1755L27.4902 25.1755C28.8398 26.5249 29.4025 28.5275 29.0007 30.8697L29.0006 30.8698C28.6185 33.1002 27.395 35.3604 25.5344 37.2203L25.5343 37.2205C23.1814 39.5742 20.2715 40.7959 17.745 40.7959C16.0643 40.7959 14.5701 40.2583 13.489 39.1779M15.4472 27.1323L13.489 39.1779M21.9513 24.5655L21.9515 24.5655C22.3892 24.4904 22.8164 24.4524 23.2305 24.4524C24.6624 24.4524 25.9312 24.9066 26.8456 25.8208L26.8457 25.8208C28.0273 27.0024 28.4364 28.7661 28.1023 30.7159L28.1023 30.7162C27.7451 32.7943 26.5953 34.8701 24.8897 36.5757L24.8896 36.5757C23.1735 38.2916 21.132 39.3929 19.2026 39.7685C17.2772 40.1434 15.4032 39.801 14.1346 38.5328L14.1345 38.5327C12.8655 37.2631 12.5229 35.3886 12.8981 33.4631C13.274 31.5337 14.3759 29.4928 16.0923 27.7777L21.9513 24.5655ZM21.9513 24.5655C19.8733 24.9223 17.798 26.0721 16.0924 27.7776L21.9513 24.5655Z" fill="white" stroke="#BD9675"/>
<path d="M20.4155 31.8648C20.7784 28.5287 22.3384 27.0571 23.7554 26.3857C25.1444 25.7275 26.4655 25.8071 26.5928 25.8165C26.8409 25.8438 27.0215 26.0664 26.9964 26.3158L26.9963 26.3162C26.9714 26.5663 26.7479 26.7486 26.5007 26.7243L26.5007 26.7242L26.4955 26.7238C26.2415 26.7014 25.1019 26.6439 23.938 27.2924C22.7404 27.9598 21.6096 29.3228 21.3226 31.9633C20.9851 35.0653 20.1097 36.6767 19.0284 37.5347C17.9385 38.3994 16.5324 38.5886 14.9048 38.5886C14.7474 38.5886 14.5895 38.5868 14.4297 38.5837L14.4291 38.5836C14.1775 38.579 13.9769 38.3714 13.981 38.1196C13.9866 37.8546 14.2104 37.6602 14.4298 37.6712L14.4377 37.6716L14.4457 37.6717C14.475 37.6722 14.5044 37.6728 14.5337 37.6733C15.8257 37.697 17.1885 37.722 18.2734 36.9632C19.4088 36.1691 20.1153 34.6262 20.4155 31.8648ZM20.4155 31.8648L19.9185 31.8107M20.4155 31.8648L19.9185 31.8107M19.9185 31.8107C19.326 37.2596 17.1823 37.2209 14.4565 37.1718L14.4547 37.1718L27.4939 26.3659C27.5468 25.8405 27.1639 25.3714 26.6385 25.3185C26.6381 25.3185 26.6373 25.3184 26.6362 25.3183C26.4887 25.3068 20.6753 24.8522 19.9185 31.8107Z" fill="white" stroke="#BD9675"/>
</svg>
