<svg width="52" height="52" viewBox="0 0 52 52" fill="none" xmlns="http://www.w3.org/2000/svg">
<path d="M20.3671 24.6913C20.1622 24.5966 19.939 24.558 19.7171 24.5786C17.9789 24.4295 16.2322 24.7083 14.6074 25.3941C12.9826 26.08 11.5217 27.1552 10.334 28.5393C6.17794 33.0431 5.3334 39.4564 8.44778 42.8393C9.09789 43.5116 9.86505 44.0367 10.7044 44.384C11.5438 44.7312 12.4386 44.8935 13.3365 44.8615C16.4872 44.724 19.4644 43.2596 21.6353 40.7795C25.7913 36.2757 26.6358 29.8624 23.5215 26.4795C22.6487 25.5696 21.5543 24.9492 20.3671 24.6913ZM12.2175 30.5817C13.3871 29.3066 14.8186 28.3503 16.3949 27.7911C15.0321 29.2032 14.1813 31.0984 13.9972 33.1326C14.0886 33.7578 14.2258 34.3741 14.4075 34.9757C14.943 36.1185 15.1234 37.4185 14.9217 38.6815C14.7201 39.9446 14.1472 41.1031 13.2885 41.9842C12.1994 42.0265 11.1391 41.5996 10.3393 40.7969C8.2906 38.5782 9.15377 33.904 12.2175 30.5817ZM19.7517 38.7515C18.9926 39.5747 18.1276 40.2744 17.1835 40.8286C17.7891 38.6378 17.7085 36.2912 16.9544 34.1553C16.8177 33.7126 16.7109 33.2598 16.6347 32.8004C17.4367 30.7942 18.6536 29.015 20.1913 27.6004C20.7335 27.7817 21.229 28.0983 21.6379 28.5249C23.6786 30.7551 22.8155 35.4322 19.7517 38.7515Z" fill="#BD9675"/>
<path d="M49.4144 32.24C48.1707 31.4502 46.6985 31.1965 45.2903 31.5293V30.3333C45.2903 29.9502 45.15 29.5828 44.9002 29.312C44.6503 29.0411 44.3115 28.8889 43.9582 28.8889H31.9696V18.7778C31.9626 18.7112 31.9501 18.6455 31.9323 18.5813C31.9363 18.5304 31.9363 18.4792 31.9323 18.4282L29.3055 7.04311V1.44444C29.3055 1.06135 29.1652 0.693954 28.9153 0.423068C28.6655 0.152182 28.3267 0 27.9734 0H3.9962C3.64292 0 3.3041 0.152182 3.05429 0.423068C2.80448 0.693954 2.66414 1.06135 2.66414 1.44444V7.046L0.0399623 18.4282C0.0399623 18.4773 0.0399623 18.5264 0.0399623 18.5756C0.0225464 18.6419 0.00919628 18.7095 0 18.7778V50.5556C0 50.9386 0.140343 51.306 0.390154 51.5769C0.639965 51.8478 0.978782 52 1.33207 52H30.6376C30.9299 51.9925 31.2114 51.8785 31.4368 51.6764C32.0406 51.882 32.6689 51.991 33.3017 52H38.63C40.1063 51.9944 41.5392 51.4571 42.7033 50.4725C43.8674 49.4878 44.6968 48.1116 45.0612 46.5602C45.4654 46.6326 45.8743 46.6703 46.284 46.6729C47.3872 46.7005 48.4724 46.3673 49.3984 45.7167C50.3148 44.9061 51.0288 43.8589 51.4747 42.6712C51.9207 41.4834 52.0843 40.1933 51.9506 38.9191C52.0908 37.6635 51.9312 36.3898 51.4871 35.2203C51.043 34.0508 50.3293 33.0246 49.4144 32.24ZM5.03788 8.66667H26.9318L28.9299 17.3333H3.03978L5.03788 8.66667ZM5.32827 2.88889H26.6414V5.77778H5.32827V2.88889ZM2.66414 20.2222H29.3055V28.8889H27.9734C27.6201 28.8889 27.2813 29.0411 27.0315 29.312C26.7817 29.5828 26.6414 29.9502 26.6414 30.3333V44.7778C26.6457 46.3458 27.126 47.8686 28.0081 49.1111H2.66414V20.2222ZM42.6262 44.7778C42.6262 45.927 42.2051 47.0292 41.4557 47.8419C40.7063 48.6546 39.6898 49.1111 38.63 49.1111H33.3017C32.2418 49.1111 31.2254 48.6546 30.476 47.8419C29.7265 47.0292 29.3055 45.927 29.3055 44.7778V31.7778H42.6262V44.7778ZM47.9118 43.3333C47.1111 43.8081 46.1733 43.9332 45.2903 43.6829V34.4731C46.1738 34.1493 47.1396 34.2189 47.9758 34.6667C49.0574 35.4322 49.2865 37.3996 49.2865 38.9133C49.3745 39.7145 49.2968 40.527 49.0591 41.2915C48.8213 42.0561 48.4294 42.7536 47.9118 43.3333Z" fill="#BD9675"/>
</svg>
